<?xml version="1.0" encoding="utf-8"?>
<!-- Generator: Adobe Illustrator 24.2.0, SVG Export Plug-In . SVG Version: 6.00 Build 0)  -->
<svg version="1.1" id="Layer_1" xmlns="http://www.w3.org/2000/svg" xmlns:xlink="http://www.w3.org/1999/xlink" x="0px" y="0px"
	 viewBox="0 0 72 72" enable-background="new 0 0 72 72" xml:space="preserve">
<g transform="translate(-10.5 -10.5)">
	<path fill="#33C481" d="M46.5,82.5c-19.9,0-36-16.1-36-36c0-19.9,16.1-36,36-36c19.9,0,36,16.1,36,36
		C82.5,66.4,66.4,82.5,46.5,82.5z"/>
	<path fill="#FFFFFF" d="M46.5,66.5c-2.9,0-5.3-2.4-5.3-5.3V31.8c0-2.9,2.4-5.3,5.3-5.3s5.3,2.4,5.3,5.3v29.3
		C51.8,64.1,49.5,66.5,46.5,66.5z"/>
	<path fill="#FFFFFF" d="M61.2,51.8H31.8c-2.9,0-5.3-2.4-5.3-5.3c0-2.9,2.4-5.3,5.3-5.3h29.3c2.9,0,5.3,2.4,5.3,5.3
		S64.1,51.8,61.2,51.8z"/>
</g>
</svg>
