<svg xmlns="http://www.w3.org/2000/svg" width="21.19" height="23.103" viewBox="0 0 21.19 23.103"><defs><style>.a{fill:#afafaf;}</style></defs><path class="a" d="M12.416,28.1a7.339,7.339,0,0,1-5.21-2.157,7.577,7.577,0,0,1,.162-10.564l8.59-8.59a5.906,5.906,0,0,1,3.767-1.781A5.643,5.643,0,0,1,25.718,11a5.91,5.91,0,0,1-1.781,3.767L15.5,23.206a4.118,4.118,0,0,1-2.519,1.236,3.925,3.925,0,0,1-4.263-4.263A4.116,4.116,0,0,1,9.956,17.66l5.879-5.879a.3.3,0,0,1,.43,0l.86.86a.3.3,0,0,1,0,.43L11.2,19a2.2,2.2,0,0,0-.634,1.146,2.1,2.1,0,0,0,.579,1.875,2.147,2.147,0,0,0,2.967,0l8.678-8.678a3.818,3.818,0,1,0-5.4-5.4L8.5,16.83a5.538,5.538,0,0,0,7.831,7.831l8.62-8.62a.3.3,0,0,1,.43,0l.86.86a.3.3,0,0,1,0,.43l-8.62,8.62A7.338,7.338,0,0,1,12.416,28.1Z" transform="translate(-5.141 -5)"/></svg>