<svg width="20" height="24" viewBox="0 0 20 24" fill="none" xmlns="http://www.w3.org/2000/svg">
<path d="M13.8462 7.27077V5.62908L16.0727 1.42058C16.1918 1.19517 16.179 0.927512 16.0389 0.713146C15.8988 0.499097 15.6513 0.368469 15.3846 0.368469H12.3077C12.1038 0.368469 11.908 0.445165 11.7638 0.581473L10.7692 1.5214L9.77466 0.581473C9.63043 0.445165 9.43476 0.368469 9.23077 0.368469H4.61538C4.3487 0.368469 4.1012 0.499097 3.96111 0.713146C3.82101 0.927557 3.80822 1.19517 3.92731 1.42058L6.15385 5.62908V7.27077C2.73192 9.64997 0 14.4395 0 18.1633C0 23.6316 5.08375 23.6316 10 23.6316C14.9163 23.6316 20 23.6316 20 18.1633C20 14.4395 17.2681 9.64997 13.8462 7.27077ZM7.69231 6.18426H12.3077V6.91123H7.69231V6.18426ZM8.91226 1.82242L10.2254 3.06341C10.5259 3.34738 11.0126 3.34738 11.3131 3.06341L12.6262 1.82242H14.1399L12.6014 4.73031H7.39861L5.86014 1.82242H8.91226ZM10 22.1777C3.98736 22.1777 1.53846 21.8146 1.53846 18.1633C1.53846 15.2221 3.79058 10.637 7.16385 8.36518H12.8362C16.2094 10.637 18.4615 15.2221 18.4615 18.1633C18.4615 21.8146 16.0126 22.1777 10 22.1777Z" fill="#68706E"/>
<g clip-path="url(#clip0)">
<path d="M12.7552 13.0453C12.7206 13.0102 12.6764 12.9927 12.6226 12.9927H11.6358C11.5704 12.6696 11.4473 12.3892 11.2665 12.1517H12.611C12.6649 12.1517 12.7091 12.1342 12.7438 12.0992C12.7782 12.0642 12.7955 12.0194 12.7955 11.9649V11.369C12.7955 11.3144 12.7782 11.2697 12.7438 11.2346C12.709 11.1996 12.6649 11.1821 12.6109 11.1821H7.80988C7.75599 11.1821 7.71179 11.1996 7.67715 11.2346C7.64261 11.2697 7.62524 11.3144 7.62524 11.3689V12.1458C7.62524 12.1964 7.64352 12.2402 7.68006 12.2772C7.7166 12.3141 7.75987 12.3326 7.80988 12.3326H8.64661C9.45829 12.3326 9.97381 12.5526 10.1931 12.9926H7.80988C7.75599 12.9926 7.71173 13.0101 7.67715 13.0452C7.64261 13.0802 7.62524 13.125 7.62524 13.1795V13.7753C7.62524 13.8298 7.64253 13.8746 7.67715 13.9096C7.71179 13.9447 7.75607 13.9621 7.80988 13.9621H10.274C10.1893 14.2815 9.99214 14.5248 9.68242 14.6923C9.37267 14.8597 8.96402 14.9435 8.45618 14.9435H7.80988C7.75987 14.9435 7.7166 14.962 7.68006 14.9989C7.6435 15.0359 7.62524 15.0798 7.62524 15.1303V15.8722C7.62524 15.9229 7.64253 15.9657 7.67715 16.0007C8.41574 16.795 9.37368 17.9066 10.5509 19.3358C10.5855 19.3826 10.6336 19.4059 10.6952 19.4059H11.8204C11.9012 19.4059 11.9571 19.3709 11.9877 19.3007C12.0262 19.2306 12.0187 19.1644 11.9646 19.1021C10.8414 17.7081 9.95849 16.6645 9.31602 15.9714C9.97003 15.8936 10.5009 15.6794 10.9087 15.329C11.3165 14.9786 11.5646 14.5229 11.6531 13.9622H12.6226C12.6764 13.9622 12.7207 13.9447 12.7552 13.9097C12.7899 13.8747 12.8072 13.8299 12.8072 13.7754V13.1797C12.8072 13.1251 12.7899 13.0803 12.7552 13.0453Z" fill="#68706E"/>
</g>
<defs>
<clipPath id="clip0">
<rect width="8.125" height="8.22389" fill="white" transform="translate(6.15381 11.1821)"/>
</clipPath>
</defs>
</svg>
