<?xml version="1.0" encoding="iso-8859-1"?>
<!-- Generator: Adobe Illustrator 24.0.1, SVG Export Plug-In . SVG Version: 6.00 Build 0)  -->
<svg version="1.1" id="Layer_1" xmlns="http://www.w3.org/2000/svg" xmlns:xlink="http://www.w3.org/1999/xlink" x="0px" y="0px"
	 viewBox="0 0 21.606 25.207" enable-background="new 0 0 21.606 25.207" xml:space="preserve">
<path fill="#DFDFDF" d="M10.8,0C6.395,0.055,2.863,3.661,2.9,8.067c0,2.926,1.878,6.02,3.671,8.5c1.102,1.509,2.3,2.946,3.587,4.3
	c0.346,0.357,0.915,0.367,1.273,0.021c0.007-0.007,0.014-0.014,0.021-0.021c1.286-1.354,2.482-2.79,3.58-4.3
	c1.8-2.483,3.678-5.577,3.678-8.5C18.747,3.658,15.209,0.049,10.8,0z M10.8,1.8c3.411,0.042,6.142,2.84,6.1,6.251
	c0,0.005,0,0.011,0,0.016c0,2.089-1.625,5.085-3.334,7.448c-0.837,1.179-1.761,2.294-2.766,3.334
	c-1.006-1.04-1.933-2.154-2.771-3.334C6.323,13.152,4.7,10.156,4.7,8.067C4.649,4.656,7.373,1.851,10.784,1.8
	C10.789,1.8,10.795,1.8,10.8,1.8z M10.8,5.4C9.806,5.4,9,6.206,9,7.2S9.806,9,10.8,9s1.8-0.806,1.8-1.8S11.794,5.4,10.8,5.4
	C10.8,5.4,10.8,5.4,10.8,5.4z M4.5,16.873C1.813,17.583,0,18.779,0,20.594c0,3.031,5.437,4.614,10.8,4.614s10.8-1.582,10.8-4.614
	c0-1.829-1.772-3-4.494-3.714l-1.153,1.589c2.469,0.577,3.847,1.393,3.847,2.124c0,1.146-3.51,2.813-9,2.813s-9-1.667-9-2.813
	c0-0.724,1.379-1.554,3.812-2.131L4.5,16.873z"/>
</svg>
