<?xml version="1.0" encoding="utf-8"?>
<!-- Generator: Adobe Illustrator 24.2.0, SVG Export Plug-In . SVG Version: 6.00 Build 0)  -->
<svg version="1.1" id="Layer_1" xmlns="http://www.w3.org/2000/svg" xmlns:xlink="http://www.w3.org/1999/xlink" x="0px" y="0px"
	 viewBox="0 0 33.3 28.6" enable-background="new 0 0 33.3 28.6" xml:space="preserve">
<g transform="translate(0 -6)">
	<path fill="#AFAFAF" d="M7,20c-0.4,0-0.7-0.2-0.7-0.6l-2.1-10C4.1,8.7,3.5,8.2,2.8,8.2H1.5c-0.4,0-0.7-0.3-0.7-0.7
		c0-0.4,0.3-0.7,0.7-0.7l0,0h1.3c1.4,0,2.6,1,2.9,2.4l2.1,10c0.1,0.4-0.2,0.8-0.6,0.9C7.1,20,7.1,20,7,20L7,20z"/>
	<circle fill="#DFDFDF" cx="27.2" cy="32.1" r="2.5"/>
	<circle opacity="0.15" enable-background="new    " cx="27.2" cy="32.1" r="0.5"/>
	<circle fill="#DFDFDF" cx="11.2" cy="32.1" r="2.5"/>
	<circle opacity="0.15" enable-background="new    " cx="11.2" cy="32.1" r="0.5"/>
	<path fill="#AFAFAF" d="M30.5,30.5H9.7c-1.6,0-3-1.3-3-3c0-1.6,1.3-3,3-3h18.6c0.4,0,0.7,0.3,0.7,0.7c0,0.4-0.3,0.7-0.7,0.7H9.7
		c-0.8,0-1.5,0.7-1.4,1.5c0,0.8,0.7,1.4,1.4,1.4h20.8c0.4,0,0.7,0.3,0.7,0.7S30.9,30.5,30.5,30.5L30.5,30.5z"/>
	<path fill="#EDEDED" d="M3,7.5C3,8.3,2.3,9,1.5,9C0.7,9,0,8.3,0,7.5C0,6.7,0.7,6,1.5,6c0,0,0,0,0,0C2.3,6,3,6.7,3,7.5z"/>
	<path fill="#DFDFDF" d="M7.2,24.9c0.1,0.7,0.7,1.2,1.5,1.2H30c0.7,0,1.3-0.5,1.5-1.2l1.5-9.2L5,13.5L7.2,24.9z"/>
	<path fill="#EDEDED" d="M32.6,12.6L4.5,10.5l0.6,3L33,15.6l0.4-2.1C33.4,13.1,33.1,12.7,32.6,12.6C32.7,12.6,32.7,12.6,32.6,12.6z"
		/>
</g>
</svg>
