<?xml version="1.0" encoding="utf-8"?>
<!-- Generator: Adobe Illustrator 24.2.0, SVG Export Plug-In . SVG Version: 6.00 Build 0)  -->
<svg version="1.1" id="Layer_1" xmlns="http://www.w3.org/2000/svg" xmlns:xlink="http://www.w3.org/1999/xlink" x="0px" y="0px"
	 viewBox="0 0 24 24" enable-background="new 0 0 24 24" xml:space="preserve">
<path fill="#DBDBDB" d="M17.5,0H1.8C0.8,0,0,0.8,0,1.7v1.9c0,0.7,0.3,1.4,0.8,1.9l5.8,5.8C6.9,11.7,7,12,7,12.3v7.9
	c0,0.3,0.2,0.6,0.4,0.7C7.5,21,7.6,21,7.8,21c0.2,0,0.4-0.1,0.5-0.2l2.8-2.4c0.6-0.5,1-1.3,1-2.1v-4c0-0.3,0.1-0.7,0.4-0.9l6-5.8
	c0.5-0.5,0.8-1.2,0.8-2V1.7C19.2,0.8,18.5,0,17.5,0z"/>
<path fill="#ECEFF1" d="M22.3,12h-6.5c-1,0-1.7,0.8-1.8,1.8v8.5c0,1,0.8,1.7,1.8,1.8h6.5c1,0,1.7-0.8,1.8-1.8v-8.5
	C24,12.8,23.2,12,22.3,12z"/>
<path fill="#90A4AE" d="M20.3,17.5h-2.5c-0.4,0-0.8-0.3-0.8-0.8s0.3-0.7,0.8-0.7h2.5c0.4,0,0.8,0.3,0.8,0.7S20.7,17.5,20.3,17.5z"/>
<path fill="#90A4AE" d="M20.3,20.5h-2.5c-0.4,0-0.8-0.3-0.8-0.8s0.3-0.8,0.8-0.8h2.5c0.4,0,0.8,0.3,0.8,0.8S20.7,20.5,20.3,20.5z"/>
<path fill="#7D8F97" d="M19,16h-1.3c-0.4,0-0.8,0.3-0.8,0.7s0.3,0.8,0.8,0.8H19V16z"/>
<path fill="#7D8F97" d="M19,19h-1.3c-0.4,0-0.8,0.3-0.8,0.8s0.3,0.8,0.8,0.8H19V19z"/>
</svg>
