<?xml version="1.0" encoding="utf-8"?>
<!-- Generator: Adobe Illustrator 24.2.0, SVG Export Plug-In . SVG Version: 6.00 Build 0)  -->
<svg version="1.1" id="Layer_1" xmlns="http://www.w3.org/2000/svg" xmlns:xlink="http://www.w3.org/1999/xlink" x="0px" y="0px"
	 viewBox="0 0 29 29" enable-background="new 0 0 29 29" xml:space="preserve">
<g transform="translate(-30 -30)">
	<path fill="#EDEDED" d="M41.3,47.7h-9.7c-0.9,0-1.6-0.7-1.6-1.6l0,0V31.6c0-0.9,0.7-1.6,1.6-1.6l0,0h9.7c0.9,0,1.6,0.7,1.6,1.6l0,0
		v14.5C42.9,47,42.2,47.7,41.3,47.7L41.3,47.7z"/>
	<path fill="#DFDFDF" d="M57.4,38.1h-9.7c-0.9,0-1.6-0.7-1.6-1.6c0,0,0,0,0,0v-4.8c0-0.9,0.7-1.6,1.6-1.6h9.7c0.9,0,1.6,0.7,1.6,1.6
		v4.8C59,37.3,58.3,38.1,57.4,38.1C57.4,38.1,57.4,38.1,57.4,38.1z"/>
	<path fill="#DFDFDF" d="M41.3,59h-9.7c-0.9,0-1.6-0.7-1.6-1.6c0,0,0,0,0,0v-4.8c0-0.9,0.7-1.6,1.6-1.6h9.7c0.9,0,1.6,0.7,1.6,1.6
		v4.8C42.9,58.3,42.2,59,41.3,59C41.3,59,41.3,59,41.3,59z"/>
	<path fill="#EDEDED" d="M57.4,59h-9.7c-0.9,0-1.6-0.7-1.6-1.6V42.9c0-0.9,0.7-1.6,1.6-1.6h9.7c0.9,0,1.6,0.7,1.6,1.6v14.5
		C59,58.3,58.3,59,57.4,59z"/>
</g>
</svg>
