<?xml version="1.0" encoding="utf-8"?>
<!-- Generator: Adobe Illustrator 24.2.0, SVG Export Plug-In . SVG Version: 6.00 Build 0)  -->
<svg version="1.1" id="Layer_1" xmlns="http://www.w3.org/2000/svg" xmlns:xlink="http://www.w3.org/1999/xlink" x="0px" y="0px"
	 viewBox="0 0 29 29" enable-background="new 0 0 29 29" xml:space="preserve">
<g transform="translate(-10.018 -10.02)">
	<path fill="#DFDFDF" d="M24.4,10.9L10.9,24.4c-1.2,1.2-1.2,3.1,0,4.4c0,0,0,0,0,0l9.4,9.4c1.2,1.2,3.1,1.2,4.4,0c0,0,0,0,0,0
		l13.5-13.5c0.6-0.6,0.9-1.3,0.9-2.2v-9.4c0-1.7-1.4-3-3.1-3.1h-9.4C25.7,10,25,10.3,24.4,10.9z M34.4,16.1c-0.8,0-1.5-0.7-1.5-1.5
		c0-0.8,0.7-1.5,1.5-1.5c0.8,0,1.5,0.7,1.5,1.5C36,15.4,35.3,16.1,34.4,16.1"/>
	<path fill="#FFFFFF" d="M23.1,30.6c-0.1,0.1-0.2,0.2-0.4,0.1c-0.7-0.3-1.4-0.7-2-1.3c-1.1-1-1.7-2.6-1.5-4.1
		c0.1-0.8,0.4-1.5,0.8-2.1l-0.5-0.5c-0.1-0.1-0.1-0.3,0-0.4l0.4-0.4c0.1-0.1,0.3-0.1,0.4,0l0.4,0.4l0.2-0.2c0.1-0.1,0.2-0.2,0.4-0.3
		L21,21.4c-0.1-0.1-0.1-0.3,0-0.4l0.4-0.4c0.1-0.1,0.3-0.1,0.4,0l0.6,0.6c0.7-0.4,1.5-0.7,2.3-0.8c1.4-0.1,2.8,0.4,3.8,1.5
		c0.5,0.5,1,1.1,1.3,1.8c0.1,0.1,0,0.3-0.1,0.4l-1.1,0.7c-0.1,0.1-0.3,0-0.4-0.1c0,0,0,0,0,0c-0.2-0.5-0.5-0.9-0.9-1.2
		c-0.5-0.6-1.3-0.9-2-0.8c-0.4,0-0.8,0.2-1.1,0.4l2.6,2.6c0.1,0.1,0.1,0.3,0,0.4l-0.4,0.4c-0.1,0.1-0.3,0.1-0.4,0c0,0,0,0,0,0
		l-2.8-2.8c-0.1,0.1-0.2,0.2-0.4,0.3c-0.1,0.1-0.1,0.1-0.2,0.2l2.8,2.8c0.1,0.1,0.1,0.3,0,0.4L25,27.7c-0.1,0.1-0.3,0.1-0.4,0
		c0,0,0,0,0,0L22,25.1c-0.2,0.3-0.4,0.8-0.4,1.2c0,0.8,0.3,1.5,0.9,2c0.4,0.4,0.8,0.7,1.3,0.9c0.2,0.1,0.2,0.2,0.1,0.4c0,0,0,0,0,0
		L23.1,30.6z"/>
</g>
</svg>
