<svg width="23" height="18" viewBox="0 0 23 18" fill="none" xmlns="http://www.w3.org/2000/svg">
<path d="M22.5542 1.49785C22.5527 1.49785 22.5512 1.49785 22.5497 1.49785H21.0384V0.933741C21.0465 0.710468 20.9141 0.509808 20.7174 0.447439C19.6681 0.147513 18.5877 -0.00287616 17.503 4.16532e-05C15.7197 4.16532e-05 13.29 0.437713 11.4933 2.43155C9.71002 0.418261 7.26245 4.16532e-05 5.48362 4.16532e-05C4.39893 -0.00287616 3.31848 0.147513 2.26924 0.447439C2.07252 0.509808 1.94011 0.710468 1.94825 0.933741V1.49299H0.445823C0.199617 1.49299 0 1.71073 0 1.97929V17.5118C0 17.7803 0.199617 17.9981 0.445823 17.9981C0.522393 17.9978 0.597625 17.9761 0.664276 17.9349C0.708858 17.9105 5.16709 15.2505 11.3908 16.9622H11.4576H11.4978C11.5333 16.9669 11.5692 16.9669 11.6048 16.9622C17.8463 15.2359 22.3045 17.8911 22.3313 17.9349C22.4692 18.0217 22.6392 18.0217 22.7771 17.9349C22.9142 17.8485 22.9991 17.6893 23 17.5166V1.98415C23 1.71559 22.8004 1.49785 22.5542 1.49785ZM0.891646 16.7385V2.47045H1.95716V14.6669C1.95438 14.9355 2.15171 15.1556 2.39791 15.1587C2.42199 15.159 2.44606 15.1572 2.46986 15.1532C3.39215 14.9996 4.32331 14.9183 5.25625 14.9101C6.54858 14.8856 7.8355 15.0976 9.06358 15.5374C6.29028 15.1716 3.47725 15.585 0.891646 16.7385ZM5.25625 13.9423C4.44536 13.9443 3.63541 14.0012 2.83098 14.1125V1.31792C3.69899 1.10699 4.5854 0.999331 5.4747 0.99696C7.14208 0.99696 9.44253 1.41518 11.0386 3.37984L11.0519 15.4936C10.1246 14.8322 8.3146 13.9423 5.25625 13.9423ZM11.9436 3.37984C13.5396 1.43463 15.8401 0.99696 17.5075 0.99696C18.3967 0.999817 19.2831 1.10741 20.1512 1.31792V14.1125C19.3513 14.0001 18.5458 13.9416 17.7393 13.9375C14.6988 13.9375 12.8843 14.8274 11.9436 15.4888V3.37984ZM22.1039 16.7385C19.5128 15.5819 16.6933 15.1683 13.9141 15.5374C15.148 15.0961 16.4411 14.884 17.7393 14.9101C18.6781 14.9158 19.6153 14.9954 20.5435 15.1483C20.7869 15.1886 21.0142 15.006 21.0512 14.7405C21.0548 14.7146 21.0565 14.6883 21.0562 14.662V2.47045H22.1217L22.1039 16.7385Z" fill="#1D390B"/>
<path d="M17.7896 5.8605C17.7649 5.83022 17.7333 5.81511 17.6949 5.81511H16.9904C16.9437 5.53592 16.8558 5.29358 16.7267 5.08834H17.6866C17.7252 5.08834 17.7567 5.07321 17.7815 5.043C17.806 5.01273 17.8184 4.974 17.8184 4.92691V4.41199C17.8184 4.36486 17.8061 4.3262 17.7815 4.2959C17.7566 4.26567 17.7251 4.25049 17.6866 4.25049H14.2588C14.2203 4.25049 14.1887 4.26567 14.164 4.29588C14.1393 4.32618 14.127 4.36485 14.127 4.41197V5.08323C14.127 5.12697 14.14 5.16481 14.1661 5.19677C14.1922 5.22874 14.2231 5.24472 14.2588 5.24472H14.8562C15.4357 5.24472 15.8038 5.43477 15.9603 5.81502H14.2588C14.2203 5.81502 14.1887 5.83013 14.164 5.86041C14.1393 5.89073 14.127 5.92937 14.127 5.9765V6.49135C14.127 6.53844 14.1393 6.57715 14.164 6.60737C14.1887 6.63768 14.2204 6.65276 14.2588 6.65276H16.0181C15.9576 6.92875 15.8169 7.139 15.5957 7.2837C15.3746 7.42841 15.0828 7.50076 14.7202 7.50076H14.2588C14.2231 7.50076 14.1922 7.51676 14.1661 7.5487C14.14 7.58068 14.127 7.61855 14.127 7.66225V8.30329C14.127 8.3471 14.1393 8.3841 14.164 8.41434C14.6913 9.10073 15.3753 10.0613 16.2158 11.2962C16.2405 11.3367 16.2748 11.3568 16.3188 11.3568H17.1222C17.1799 11.3568 17.2198 11.3266 17.2417 11.2659C17.2691 11.2054 17.2638 11.1482 17.2252 11.0943C16.4232 9.88971 15.7928 8.98797 15.3341 8.38907C15.8011 8.32178 16.1801 8.13668 16.4713 7.83391C16.7624 7.53111 16.9395 7.13736 17.0028 6.65285H17.6949C17.7333 6.65285 17.765 6.63775 17.7896 6.60745C17.8144 6.57724 17.8268 6.53853 17.8268 6.49144V5.97664C17.8268 5.92946 17.8144 5.8908 17.7896 5.8605Z" fill="#1D390B"/>
</svg>
