<svg id="Capa_1" enable-background="new 0 0 512 512" height="512" viewBox="0 0 512 512" width="512" xmlns="http://www.w3.org/2000/svg"><g><path d="m226 0h-30-30c-41.353 0-75 34.647-75 76v37.632h105 105v-37.632c0-41.353-33.647-76-75-76z" fill="#ffb725"/><path d="m301 76c0-41.353-33.647-76-75-76h-30v113.632h105z" fill="#ff9100"/><path d="m330.707 351.64-29.707-5.779-15 45.139-15-50.975-45-9.025h-30-30l-45 9.027-15 50.973-15-45.137-29.707 5.777c-34.937 6.987-61.293 37.924-61.293 73.549v71.811c0 8.291 6.709 15 15 15h76l30-30h75 75l30 30h76c8.291 0 15-6.709 15-15v-71.811c0-35.625-26.356-66.562-61.293-73.549z" fill="#83e685"/><path d="m301 512h76c8.291 0 15-6.709 15-15v-71.811c0-35.625-26.356-66.563-61.293-73.55l-29.707-5.778-15 45.139-15-50.975-45-9.025h-30v151h75z" fill="#3faf90"/><path d="m241 121-45 36-105 84v15c0 41.422 33.578 75 75 75v27.653c0 1.556.242 3.102.716 4.581l15.868 49.475c2.765 5.526 8.09 8.291 13.416 8.291 5.325 0 10.653-2.765 13.416-8.291l15.15-47.239c.95-2.963 1.434-6.053 1.434-9.163v-25.307c41.422 0 75-33.578 75-75v-135z" fill="#ffe1ba"/><path d="m209.416 412.709 15.15-47.239c.95-2.963 1.434-6.053 1.434-9.163v-25.307c41.422 0 75-33.578 75-75v-135h-60l-45 36v264c5.325 0 10.653-2.765 13.416-8.291z" fill="#ffbfab"/><path d="m121 451v-110.973l-30 5.836v75.137z" fill="#596c76"/><path d="m301 421v-75.139l-30-5.836v110.975z" fill="#465a61"/><path d="m512 196v90c0 24.901-20.099 45-45 45h-60c-24.901 0-45-20.099-45-45v-90c0-8.401 6.599-15 15-15s15 6.599 15 15v90c0 8.401 6.599 15 15 15h60c8.401 0 15-6.599 15-15v-90c0-8.401 6.599-15 15-15s15 6.599 15 15z" fill="#ffe375"/><path d="m196 421h-105v91h105 105v-91z" fill="#596c76"/><path d="m196 421h105v91h-105z" fill="#465a61"/><path d="m196 121h-105v120h75c10.682 0 20.803-2.307 30-6.332 26.468-11.581 45-37.928 45-68.668v-45z" fill="#596c76"/><path d="m241 166v-45h-45v113.668c26.468-11.581 45-37.928 45-68.668z" fill="#465a61"/><path d="m382.229 121.938c-3.383-1.26-85.287-30.938-186.229-30.938s-182.846 29.678-186.229 30.938c-5.875 2.197-9.771 7.792-9.771 14.062s3.896 11.865 9.771 14.063c3.383 1.259 85.287 30.937 186.229 30.937s182.846-29.678 186.229-30.938c5.875-2.197 9.771-7.792 9.771-14.062s-3.896-11.865-9.771-14.062z" fill="#ffe375"/><path d="m392 136c0-6.27-3.896-11.865-9.771-14.063-3.383-1.259-85.287-30.937-186.229-30.937v90c100.942 0 182.846-29.678 186.229-30.938 5.875-2.197 9.771-7.792 9.771-14.062z" fill="#ffb725"/><path d="m512 196v90c0 24.901-20.099 45-45 45h-30v-30h30c8.401 0 15-6.599 15-15v-90c0-8.401 6.599-15 15-15s15 6.599 15 15z" fill="#ffb725"/><path d="m452 196v301c0 8.401-6.599 15-15 15s-15-6.599-15-15v-301c0-8.401 6.599-15 15-15s15 6.599 15 15z" fill="#ffe375"/><path d="m452 196v301c0 8.401-6.599 15-15 15v-331c8.401 0 15 6.599 15 15z" fill="#ffb725"/></g></svg>