<svg width="46" height="44" viewBox="0 0 46 44" fill="none" xmlns="http://www.w3.org/2000/svg">
<rect width="46" height="44" rx="15" fill="#738369"/>
<g clip-path="url(#clip0)">
<path d="M15.5969 35.65C18.03 36.18 20.5101 36.4648 22.9999 36.5C25.4898 36.4648 27.9699 36.18 30.403 35.65C31.4581 36.4878 32.7562 36.9614 34.103 37C34.6959 36.9924 35.2099 36.5877 35.3565 36.013C35.763 34.8275 35.273 32.718 34.0515 31.575C34.6162 28.4129 34.9333 25.2115 35 22C34.934 18.7886 34.6175 15.5872 34.0535 12.425C35.275 11.282 35.765 9.17504 35.3585 7.98704C35.2119 7.4124 34.6979 7.00766 34.105 7.00004C32.7582 7.03869 31.4601 7.51231 30.405 8.35004C27.9712 7.8199 25.4905 7.53514 22.9999 7.50004C20.5101 7.53528 18.03 7.82004 15.5969 8.35004C14.5412 7.5119 13.2424 7.03826 11.8949 7.00004C11.302 7.00766 10.788 7.4124 10.6414 7.98704C10.2349 9.17254 10.7249 11.282 11.9464 12.425C11.3824 15.5872 11.0659 18.7886 10.9999 22C11.0659 25.2115 11.3824 28.4128 11.9464 31.575C10.7249 32.718 10.2349 34.8275 10.6414 36.013C10.788 36.5877 11.302 36.9924 11.8949 37C13.2424 36.9618 14.5412 36.4882 15.5969 35.65ZM11.5874 35.6875C11.408 34.7063 11.6178 33.6937 12.1724 32.8645C12.2039 33.0345 12.2339 33.197 12.2629 33.3505C12.2935 33.5286 12.4176 33.6763 12.5878 33.737C12.7579 33.7977 12.9476 33.7619 13.0839 33.6433C13.2202 33.5248 13.2819 33.3419 13.2454 33.165C12.5155 29.4853 12.0989 25.7502 11.9999 22C12.0988 18.2494 12.5154 14.5138 13.2454 10.8335C13.2865 10.5668 13.1084 10.3156 12.8431 10.266C12.5777 10.2164 12.321 10.3864 12.2629 10.65C12.2339 10.8035 12.2039 10.966 12.1724 11.136C11.6178 10.3069 11.408 9.29431 11.5874 8.31304C11.6939 8.00004 11.8299 8.00004 11.8949 8.00004C12.7265 8.03221 13.5397 8.25457 14.2719 8.65004L14.1219 8.68654C13.861 8.75867 13.7049 9.02541 13.7697 9.28826C13.8346 9.55112 14.0969 9.71459 14.3614 9.65704C17.1874 8.94342 20.0858 8.55523 22.9999 8.50004C25.9142 8.55454 28.8127 8.94206 31.639 9.65504C31.9035 9.71259 32.1658 9.54912 32.2307 9.28626C32.2955 9.02341 32.1394 8.75667 31.8785 8.68454L31.7285 8.64804C32.4607 8.25334 33.2737 8.03167 34.105 8.00004C34.17 8.00004 34.305 8.00004 34.4125 8.31104C34.5919 9.29231 34.3821 10.3049 33.8275 11.134C33.796 10.964 33.766 10.8015 33.737 10.648C33.7064 10.47 33.5823 10.3223 33.4121 10.2616C33.242 10.2009 33.0523 10.2367 32.916 10.3552C32.7797 10.4738 32.718 10.6566 32.7545 10.8335C33.4845 14.5138 33.9011 18.2494 34 22C33.9011 25.7507 33.4845 29.4863 32.7545 33.1665C32.718 33.3434 32.7797 33.5263 32.916 33.6448C33.0523 33.7634 33.242 33.7992 33.4121 33.7385C33.5823 33.6778 33.7064 33.5301 33.737 33.352C33.766 33.1985 33.796 33.036 33.8275 32.866C34.3821 33.6952 34.5919 34.7078 34.4125 35.689C34.306 36 34.17 36 34.105 36C33.2734 35.9679 32.4602 35.7455 31.728 35.35L31.878 35.3135C32.1389 35.2414 32.295 34.9747 32.2302 34.7118C32.1653 34.449 31.903 34.2855 31.6385 34.343C28.8125 35.0567 25.9141 35.4448 22.9999 35.5C20.0857 35.4455 17.1872 35.058 14.3609 34.345C14.1856 34.2966 13.9977 34.3472 13.8704 34.4772C13.7432 34.6072 13.6966 34.7961 13.7487 34.9704C13.8009 35.1447 13.9437 35.2769 14.1214 35.3155L14.2714 35.352C13.5392 35.7467 12.7262 35.9684 11.8949 36C11.8299 36 11.6939 36 11.5874 35.689V35.6875Z" fill="white"/>
<path d="M15.5 22C15.5 26.1421 18.8579 29.5 23 29.5C27.1421 29.5 30.5 26.1421 30.5 22C30.5 17.8579 27.1421 14.5 23 14.5C18.8598 14.5047 15.5047 17.8598 15.5 22ZM23 28.5C21.2495 28.5002 19.5734 27.7919 18.3535 26.5365C18.6368 26.1959 19.057 25.9993 19.5 26C19.8378 26.0009 20.1648 26.1188 20.4255 26.3335C20.5448 26.4302 20.702 26.4666 20.8517 26.4324C21.0014 26.3981 21.1271 26.2969 21.1925 26.158C21.4948 25.517 22.1121 25.0823 22.8175 25.0135C22.7482 25.2812 22.6568 25.5426 22.544 25.795C22.4681 25.9584 22.4859 26.1499 22.5907 26.2964C22.6954 26.443 22.8709 26.5219 23.05 26.5029C23.2291 26.484 23.3842 26.3702 23.456 26.205C23.6048 25.8735 23.7235 25.5293 23.8105 25.1765C24.2488 25.375 24.6022 25.7229 24.8075 26.158C24.8729 26.2969 24.9986 26.3981 25.1483 26.4324C25.298 26.4666 25.4552 26.4302 25.5745 26.3335C25.8352 26.1188 26.1622 26.0009 26.5 26C26.943 25.9993 27.3632 26.1959 27.6465 26.5365C26.4266 27.7919 24.7505 28.5002 23 28.5ZM23.3615 20.371C23.3284 19.8461 23.5031 19.3292 23.848 18.932C24.333 18.5105 25.244 18.617 25.618 18.682C25.6336 18.6902 25.6452 18.7045 25.65 18.7215C25.6635 19.0985 25.6425 20.0215 25.167 20.4365C24.6915 20.8515 23.781 20.7495 23.44 20.693L23.3615 20.371ZM22.469 20.9315C22.1455 21.1685 21.4095 21.634 20.819 21.4895C20.2501 21.2444 19.8091 20.7733 19.602 20.1895C19.598 20.1694 19.6021 20.1485 19.6135 20.1315C20.0262 19.7947 20.5268 19.5833 21.056 19.5225C21.1381 19.5221 21.2198 19.5319 21.2995 19.5515C21.784 19.7504 22.1736 20.1277 22.388 20.6055L22.469 20.9315ZM29.5 22C29.5002 23.3486 29.0779 24.6633 28.2925 25.7595C27.8232 25.2731 27.1759 24.9989 26.5 25C26.1282 25.001 25.7615 25.0865 25.4275 25.25C25.0654 24.7509 24.5595 24.3743 23.9775 24.1705C24.0423 23.3525 23.9712 22.5293 23.767 21.7345C23.867 21.7415 23.967 21.7505 24.075 21.7505C24.7065 21.7801 25.3276 21.5817 25.825 21.1915C26.5955 20.5155 26.675 19.333 26.65 18.6855C26.6255 18.1967 26.2683 17.7888 25.787 17.7C25.153 17.588 23.972 17.5 23.19 18.1815C22.8962 18.4518 22.6789 18.7949 22.56 19.176C22.2798 18.8911 21.9285 18.6864 21.5425 18.583C20.6025 18.3445 19.649 18.8585 19.015 19.333C18.6243 19.6359 18.4932 20.1678 18.6985 20.6175C19.038 21.3315 19.6405 22.2315 20.5805 22.4635C20.7384 22.5022 20.9004 22.5217 21.063 22.5215C21.6793 22.4908 22.2744 22.2864 22.7795 21.932C22.9554 22.6078 23.0229 23.3071 22.9795 24.004C22.0239 24.0147 21.1302 24.4787 20.5715 25.254C20.2382 25.0893 19.8718 25.0024 19.5 25C18.8241 24.9989 18.1768 25.2731 17.7075 25.7595C16.0821 23.4717 16.1096 20.3989 17.7755 18.1405C19.4414 15.8821 22.3692 14.9487 25.0348 15.8262C27.7005 16.7037 29.5013 19.1937 29.5 22Z" fill="white"/>
<path d="M14.5499 13.4715C17.2646 12.5125 20.1208 12.0151 22.9999 12C25.879 12.0151 28.7352 12.5125 31.4499 13.4715C31.6184 13.531 31.8057 13.4961 31.9415 13.38C32.0772 13.2638 32.1407 13.0841 32.108 12.9085C32.0753 12.7328 31.9514 12.588 31.7829 12.5285C26.1043 10.5 19.8985 10.5 14.2199 12.5285C13.9595 12.6205 13.8229 12.9061 13.9149 13.1665C14.0069 13.4269 14.2925 13.5635 14.5529 13.4715H14.5499Z" fill="white"/>
<path d="M14.2185 31.4716C17.0375 32.4764 20.0072 32.9933 23 33.0001C25.9927 32.9933 28.9624 32.4764 31.7815 31.4716C32.0419 31.3796 32.1784 31.094 32.0865 30.8336C31.9945 30.5732 31.7089 30.4366 31.4485 30.5286C28.7342 31.4875 25.8786 31.9848 23 32.0001C20.1209 31.985 17.2647 31.4876 14.55 30.5286C14.2896 30.4366 14.0039 30.5732 13.912 30.8336C13.82 31.094 13.9566 31.3796 14.217 31.4716H14.2185Z" fill="white"/>
</g>
<defs>
<clipPath id="clip0">
<rect width="30" height="30" fill="white" transform="translate(8 7)"/>
</clipPath>
</defs>
</svg>
