<?xml version="1.0" encoding="iso-8859-1"?>
<!-- Generator: Adobe Illustrator 24.0.1, SVG Export Plug-In . SVG Version: 6.00 Build 0)  -->
<svg version="1.1" id="Layer_1" xmlns="http://www.w3.org/2000/svg" xmlns:xlink="http://www.w3.org/1999/xlink" x="0px" y="0px"
	 viewBox="0 0 83.012 83.012" enable-background="new 0 0 83.012 83.012" xml:space="preserve">
<g transform="translate(-102.864 -2.864)">
	<g transform="translate(102.864 2.864)">
		<g transform="translate(0 0)">
			
				<linearGradient id="SVGID_1_" gradientUnits="userSpaceOnUse" x1="-251.8263" y1="458.2272" x2="-250.9643" y2="457.3652" gradientTransform="matrix(83.2685 0 0 -83.269 20978.3945 38165.3086)">
				<stop  offset="0" style="stop-color:#FFDE00"/>
				<stop  offset="1" style="stop-color:#FD5900"/>
			</linearGradient>
			<path fill="url(#SVGID_1_)" d="M55.613,52.174c11.375-13.274,9.835-33.256-3.439-44.63s-33.256-9.835-44.63,3.439
				s-9.835,33.256,3.439,44.63c11.852,10.156,29.339,10.156,41.191,0l4.085-0.327L55.613,52.174z M80.873,70.557L65.457,55.14
				c-0.95-0.949-2.489-0.949-3.439,0L60.3,56.859l-2.742,0.048l-0.7,3.391l-1.718,1.719c-0.95,0.95-0.95,2.489,0,3.439
				l15.416,15.418c2.75,2.948,7.369,3.109,10.318,0.359c2.948-2.75,3.109-7.369,0.359-10.318
				C81.117,70.791,80.997,70.672,80.873,70.557L80.873,70.557z"/>
			<path fill="#FFF1C9" d="M39.219,29.506c-2.981-2.323-6.935-2.793-7.689-4.156c-0.142-0.528,0.085-1.085,0.555-1.364
				c1.032-0.468,2.23-0.38,3.183,0.232c1.428,1.359,3.688,1.304,5.047-0.124c1.359-1.428,1.304-3.688-0.124-5.047
				c-0.027-0.026-0.055-0.051-0.083-0.076c-0.983-0.883-2.15-1.538-3.416-1.918c-0.016-1.971-1.626-3.555-3.597-3.539
				c-1.971,0.016-3.555,1.626-3.539,3.597v0.18c-4.257,1.723-6.312,6.571-4.588,10.829c0.095,0.235,0.201,0.466,0.317,0.691
				c2.019,3.645,5.833,4.44,8.291,5.592c1.122,0.526,2.133,1.211,2.133,2.2c-0.085,0.886-0.639,1.659-1.45,2.026
				c-1.184,0.557-3.592,0.194-5.053-0.762c-1.67-1.048-3.874-0.543-4.921,1.127c-1.02,1.625-0.572,3.766,1.013,4.847
				c1.309,0.83,2.749,1.432,4.259,1.78v0.06c0.033,1.971,1.658,3.543,3.629,3.51c1.925-0.032,3.478-1.585,3.51-3.51v-0.339
				c6.5-2.494,8.64-11.074,2.524-15.84L39.219,29.506z"/>
		</g>
	</g>
</g>
</svg>
