<?xml version="1.0" encoding="utf-8"?>
<!-- Generator: Adobe Illustrator 24.2.0, SVG Export Plug-In . SVG Version: 6.00 Build 0)  -->
<svg version="1.1" id="Layer_1" xmlns="http://www.w3.org/2000/svg" xmlns:xlink="http://www.w3.org/1999/xlink" x="0px" y="0px"
	 viewBox="0 0 31.1 34" enable-background="new 0 0 31.1 34" xml:space="preserve">
<g transform="translate(-21.537)">
	<path fill="#DFDFDF" d="M38.9,14c-0.3,0.3-0.6,0.4-1,0.4c-2.2-0.2-4.4-0.9-6.3-1.9c-4.2-2.2-6.8-6.5-6.7-11.2
		c0-0.3,0.1-0.7,0.4-0.9c0.3-0.3,0.6-0.4,1-0.4l0,0c2.3,0.1,4.5,0.8,6.5,2c1.7,1,3.1,2.3,4.1,4C38.1,8,39,10.5,39.2,13
		C39.3,13.4,39.1,13.7,38.9,14z"/>
	<path fill="#DFDFDF" d="M51.1,0.4c-0.3-0.3-0.6-0.4-1-0.4c-2.2,0.2-4.4,0.9-6.3,1.9c-3.1,1.6-5.4,4.5-6.3,7.9
		c-1.3,4.4-1.9,9-1.6,13.5c0,0.6,0.5,1.1,1.1,1.1h0.1c0.6,0,1.1-0.6,1.1-1.2c-0.1-3,0-5.9,0.5-8.9c2.2-0.2,4.3-0.8,6.2-1.9
		c1.7-1,3.1-2.3,4.1-4c1.4-2.1,2.2-4.6,2.4-7.1C51.5,1,51.4,0.7,51.1,0.4z"/>
	<path fill="#DFDFDF" d="M49.9,27.2c-0.5,0-1,0.1-1.4,0.4c-0.7-2.3-3-3.8-5.4-3.4c-1.4-3.3-5.3-4.8-8.6-3.4
		c-1.5,0.7-2.7,1.9-3.4,3.4c-2.4-0.4-4.7,1.1-5.4,3.4c-1.3-0.8-3-0.4-3.8,0.9c-0.8,1.3-0.4,3,0.9,3.8c1.1,0.7,2.6,0.5,3.5-0.5
		c1.5,2.3,4.6,2.9,6.8,1.4c0.3-0.2,0.6-0.4,0.8-0.7c2,1.1,4.4,1.1,6.3,0c1.9,1.9,5,2,6.9,0.1c0.3-0.2,0.5-0.5,0.7-0.8
		c1,1.1,2.7,1.2,3.9,0.2c1.1-1,1.2-2.7,0.2-3.9C51.4,27.5,50.7,27.2,49.9,27.2L49.9,27.2z"/>
	<g transform="translate(21.537 20.279)">
		<path fill="#DFDFDF" d="M19.1,2.7c0.6,0,1.3,0.1,1.9,0.3c-2-3-6-3.8-9-1.9c-1.1,0.7-1.9,1.7-2.4,2.8C7.2,3.5,4.9,5,4.2,7.3
			c-1.3-0.8-3-0.4-3.8,0.9c-0.8,1.3-0.4,3,0.9,3.8c1.1,0.7,2.6,0.5,3.5-0.5c1.5,2.3,4.6,2.9,6.8,1.4c0.3-0.2,0.6-0.4,0.8-0.7
			c0.4,0.2,0.8,0.4,1.3,0.5c-2-3-1.1-7,1.9-9C16.6,3,17.9,2.7,19.1,2.7L19.1,2.7z"/>
		<circle fill="#DFDFDF" cx="18.1" cy="7.6" r="1.2"/>
		<circle fill="#DFDFDF" cx="22.9" cy="10.4" r="1.2"/>
		<circle fill="#DFDFDF" cx="22.2" cy="6.4" r="0.5"/>
		<circle fill="#DFDFDF" cx="15.5" cy="10.9" r="0.5"/>
		<circle fill="#DFDFDF" cx="17" cy="4.7" r="0.5"/>
		<circle fill="#DFDFDF" cx="26.7" cy="8.8" r="0.5"/>
	</g>
	<g transform="translate(44.423 19.858)">
		<circle fill="#DFDFDF" cx="1.2" cy="1.2" r="1.2"/>
		<circle fill="#DFDFDF" cx="3.8" cy="3.8" r="0.5"/>
		<circle fill="#DFDFDF" cx="3.8" cy="1.6" r="0.5"/>
	</g>
	<g transform="translate(25.161 19.442)">
		<circle fill="#DFDFDF" cx="2.4" cy="1.2" r="1.2"/>
		<circle fill="#DFDFDF" cx="0.5" cy="3.8" r="0.5"/>
	</g>
</g>
</svg>
