<?xml version="1.0" encoding="utf-8"?>
<!-- Generator: Adobe Illustrator 24.0.1, SVG Export Plug-In . SVG Version: 6.00 Build 0)  -->
<svg version="1.1" id="Layer_1" xmlns="http://www.w3.org/2000/svg" xmlns:xlink="http://www.w3.org/1999/xlink" x="0px" y="0px"
	 viewBox="0 0 29.7 35.9" enable-background="new 0 0 29.7 35.9" xml:space="preserve">
<g transform="translate(0 0)">
	<path fill="#F0C419" d="M28.9,31.3c1.1,1.9,1.1,4.6-0.3,4.6c-1.1,0-2.1-0.3-3-0.8c-0.5-0.2-1-0.6-1.4-0.9h0v0
		c-3.1,0.7-6.2,1.1-9.3,1.1c-3.1,0-6.3-0.4-9.3-1.1c-0.4,0.4-0.9,0.7-1.4,1c-0.9,0.5-2,0.7-3,0.8c-1.4,0-1.4-2.7-0.3-4.6
		c0.3-0.5,0.6-0.9,1-1.2c-0.7-4-1.1-8-1.2-12.1c0.1-4.1,0.5-8.1,1.2-12.1c-0.4-0.3-0.8-0.8-1-1.2C-0.3,2.7-0.3,0,1.1,0
		c1.1,0,2.1,0.3,3,0.8c0.5,0.3,1,0.6,1.4,1c3.1-0.7,6.2-1.1,9.3-1.1c3.1,0,6.3,0.4,9.3,1.1l0,0c0.4-0.4,0.9-0.7,1.4-0.9h0
		c0.9-0.5,2-0.7,3-0.8c1.4,0,1.4,2.7,0.3,4.6v0c-0.3,0.5-0.6,0.9-1,1.2l0,0c0.7,4,1.1,8,1.2,12.1c-0.1,4.1-0.5,8.1-1.2,12.1l0,0
		C28.3,30.4,28.7,30.8,28.9,31.3L28.9,31.3z"/>
	<g transform="translate(0.62 0.762)">
		<path fill="#F29C1F" d="M28.3,3.9L28.3,3.9c-0.3,0.5-0.6,0.9-1,1.2c-0.1-0.7-0.2-1.3-0.3-1.8c-0.1-0.3,0.1-0.7,0.5-0.7
			c0.3-0.1,0.7,0.1,0.7,0.5c0,0,0,0,0,0C28.2,3.3,28.3,3.6,28.3,3.9z"/>
		<path fill="#F29C1F" d="M25.9,0.9c-0.1,0.3-0.4,0.5-0.7,0.5c0,0,0,0,0,0c-0.4-0.1-0.9-0.2-1.5-0.3c0,0,0,0,0,0
			C24,0.6,24.5,0.2,25,0h0c0.2,0,0.3,0.1,0.4,0.1C25.8,0.2,26,0.5,25.9,0.9z"/>
		<path fill="#F29C1F" d="M4.9,1C3.6,1.2,3.5,1.3,3.3,1.3C3,1.3,2.7,1,2.7,0.7c0-0.3,0.2-0.5,0.5-0.6c0.1,0,0.2,0,0.3-0.1
			C4,0.2,4.5,0.6,4.9,1L4.9,1z"/>
		<path fill="#F29C1F" d="M1.6,3.2C1.3,4.4,1.2,5,1.2,5.1c-0.4-0.3-0.8-0.8-1-1.2C0.2,3.5,0.3,3.2,0.3,3c0-0.3,0.3-0.6,0.7-0.5
			S1.6,2.8,1.6,3.2C1.6,3.1,1.6,3.2,1.6,3.2L1.6,3.2z"/>
		<path fill="#F29C1F" d="M28.5,17.2c-0.1,3.4-0.4,6.7-0.9,10.1c-4.2,1.9-8.7,2.9-13.4,2.9c-4.6,0-9.2-1-13.4-2.9
			C0.4,23.9,0.1,20.6,0,17.2c0.1-3.4,0.4-6.7,0.9-10.1c4.2-1.9,8.7-2.9,13.4-2.9c4.6,0,9.2,1,13.4,2.9
			C28.1,10.5,28.4,13.8,28.5,17.2z"/>
		<path fill="#F29C1F" d="M4.9,33.4c-0.4,0.4-0.9,0.7-1.4,1c-0.2,0-0.3-0.1-0.5-0.1c-0.3,0-0.6-0.4-0.5-0.7s0.4-0.6,0.7-0.5
			c0,0,0.1,0,0.1,0C4.7,33.4,4.7,33.4,4.9,33.4L4.9,33.4z"/>
		<path fill="#F29C1F" d="M25.5,34.3c-0.2,0-0.3,0.1-0.5,0.1c-0.5-0.2-1-0.6-1.4-0.9c0,0,1.2-0.3,1.6-0.4c0.3-0.1,0.7,0.1,0.8,0.4
			C26,33.8,25.9,34.2,25.5,34.3C25.5,34.3,25.5,34.3,25.5,34.3L25.5,34.3z"/>
		<path fill="#F29C1F" d="M28.3,30.6c-0.1,0.3-0.1,0.6-0.2,0.9c0,0.3-0.3,0.6-0.7,0.5c-0.3,0-0.6-0.3-0.5-0.7c0,0,0-0.1,0-0.1
			c0.1-0.5,0.2-1.1,0.3-1.8c0,0,0,0,0,0C27.7,29.7,28.1,30.1,28.3,30.6L28.3,30.6z"/>
		<path fill="#F29C1F" d="M1.6,31.2c0.1,0.3-0.1,0.7-0.4,0.8s-0.7-0.1-0.8-0.4c0,0,0-0.1,0-0.1c0-0.3-0.1-0.6-0.2-0.9
			c0.3-0.5,0.6-0.9,1-1.2c0,0,0,0,0,0C1.4,30.1,1.5,30.7,1.6,31.2L1.6,31.2z"/>
	</g>
	<circle fill="#F5EFCA" cx="15" cy="18.1" r="9"/>
	<path fill="#A56A43" d="M21.4,23.7c-3.1,3.6-8.6,4-12.2,0.9c-0.3-0.3-0.6-0.6-0.9-0.9c0.4-0.8,1.3-1.4,2.2-1.4
		c0.6,0,1.1,0.2,1.5,0.6c0.7-1.5,2.5-2.2,4.1-1.5c0.7,0.3,1.2,0.8,1.5,1.5c0.4-0.4,1-0.5,1.5-0.6C20.1,22.3,21,22.8,21.4,23.7z"/>
	<path fill="#14A085" d="M14.9,23.5c-0.3,0-0.6-0.3-0.6-0.6c0-0.1,0-0.2,0.1-0.3c0.7-1.8,0.7-3.9,0-5.7c-0.1-0.3,0-0.7,0.3-0.8
		c0.3-0.1,0.7,0,0.8,0.3c0.9,2.1,0.9,4.6,0,6.7C15.3,23.4,15.1,23.5,14.9,23.5z"/>
	<path fill="#26B99A" d="M14.9,16.7c0,0.1-0.1,0.3-0.2,0.4C13.9,17.7,13,18,12,17.9c-0.9-0.4-1.6-1.1-1.9-2c-0.1-0.3,0-0.6,0.2-0.8
		c0.7-0.6,1.7-0.9,2.6-0.8c0.8,0.3,1.4,0.9,1.8,1.7L14.9,16.7z"/>
	<path fill="#26B99A" d="M14.9,16.7c0.1,0.1,0.2,0.2,0.4,0.2c0.9,0.2,1.9,0.1,2.7-0.5c0.6-0.7,0.9-1.7,0.8-2.6
		c0-0.3-0.2-0.6-0.6-0.6c-0.9-0.2-1.9-0.1-2.7,0.5c-0.6,0.6-0.9,1.5-0.8,2.3L14.9,16.7z"/>
</g>
</svg>
