<?xml version="1.0" encoding="utf-8"?>
<!-- Generator: Adobe Illustrator 24.2.0, SVG Export Plug-In . SVG Version: 6.00 Build 0)  -->
<svg version="1.1" id="Layer_1" xmlns="http://www.w3.org/2000/svg" xmlns:xlink="http://www.w3.org/1999/xlink" x="0px" y="0px"
	 viewBox="0 0 34.3 28.5" enable-background="new 0 0 34.3 28.5" xml:space="preserve">
<path fill="#8D6339" d="M19.8,9.1h-1.2V7.6c0-2.8,1.1-5.5,3.1-7.4L22.5,1c-1.8,1.8-2.7,4.1-2.7,6.6V9.1z"/>
<path fill="#8AC03F" d="M14.3,0c2.9,0,5.2,2.3,5.2,5.2C16.6,5.2,14.3,2.9,14.3,0z"/>
<path fill="#8AC03F" d="M11.6,11.1H8.7c-3.5,0-6.4-2.9-6.4-6.4c0,0,0,0,0,0V1.7h2.9c3.5,0,6.4,2.9,6.4,6.4l0,0L11.6,11.1z"/>
<path fill="#C6DB5B" d="M12.1,10.6L7.6,6.2V3.5H6.4V5L4.5,3.1L3.7,3.9l1.9,1.9H4.1V7h2.7l4.5,4.5L12.1,10.6z"/>
<path fill="#EC4042" d="M13.8,5.8c-2.7,0-5.2,1.5-6.4,4c-0.6,1.2-0.9,2.5-0.9,3.9c0,2.1,0.4,4.2,1.3,6.1l2.6,5.8
	c1.1,2.4,3.7,3.5,6.2,2.7l2.7-0.9l2.7,0.9c2.5,0.8,5.1-0.4,6.2-2.7l2.6-5.8c0.9-1.9,1.3-4,1.3-6.1c0-1.3-0.3-2.7-0.9-3.9
	c-1.8-3.6-6.1-5-9.7-3.2c-0.5,0.2-0.9,0.5-1.3,0.8l-0.9,0.7l-0.9-0.7C17,6.4,15.4,5.8,13.8,5.8L13.8,5.8z"/>
<path fill="#89B33B" d="M14.9,19.9c0.8,3.8-1.6,7.5-5.4,8.3c-3.6,0.8-7.2-1.5-8.2-5.1c-0.9-3.8-0.3-11.3,4.3-12.4
	S14.1,16.1,14.9,19.9L14.9,19.9z"/>
<path fill="#FAE100" d="M12.8,21.5c0,2.6-2.1,4.7-4.7,4.7s-4.7-2.1-4.7-4.7c0-2.6,2.1-4.7,4.7-4.7l0,0
	C10.7,16.8,12.8,18.9,12.8,21.5z"/>
<path fill="#FFC117" d="M1.3,28.5H27c1,0,1.9-0.4,2.7-1.1l0.3-0.3c1.5-1.5,1.5-3.8,0-5.3c-0.9-0.9-2.2-1.3-3.4-1L1,26
	c-0.7,0.1-1.1,0.8-1,1.5C0.1,28.1,0.7,28.5,1.3,28.5L1.3,28.5z"/>
<path fill="#8AC03F" d="M33.9,23.9l-0.2-1.1L32.3,23l0.8-1.1l-1-0.7l-1.6,2.3c-0.2,0.2-0.1,0.5,0.1,0.7l2.2,2.3l0.9-0.8l-1.5-1.6
	L33.9,23.9z"/>
<path fill="#CCDDE6" d="M33.2,10.4c-0.1-0.3-0.2-0.7-0.4-1l1.1-0.5c0.2,0.4,0.3,0.7,0.4,1.1L33.2,10.4z"/>
<path fill="#CCDDE6" d="M32.3,8.3c-1.6-2.6-4.5-4.2-7.6-4.2c-0.2,0-0.5,0-0.7,0l-0.1-1.2c0.3,0,0.6,0,0.8,0c3.5,0,6.8,1.8,8.6,4.8
	L32.3,8.3z"/>
<g transform="translate(8.707 20.785)">
	<path fill="#FDAD2A" d="M1.1,5.6c0.2-0.7,0.4-1.4,0.3-2.1V3.3L0.3,3.6c0,0.6-0.1,1.1-0.3,1.6L1.1,5.6z"/>
	<path fill="#FDAD2A" d="M4,4.7l1.1,0.4c0.3-0.8,0.4-1.7,0.3-2.5l0-0.1L4.3,2.8C4.3,3.4,4.2,4.1,4,4.7z"/>
	<path fill="#FDAD2A" d="M8,4.2l1.1,0.4c0.3-0.9,0.4-1.9,0.3-2.9v0L8.2,2C8.4,2.7,8.3,3.5,8,4.2z"/>
	<path fill="#FDAD2A" d="M12,3.7l1.1,0.4c0.4-1,0.4-2.1,0.2-3.2l-1.1,0.2v0C12.4,2,12.3,2.9,12,3.7z"/>
	<path fill="#FDAD2A" d="M16.6,2.4l-0.1,0.2l1.1,0.3l0.1-0.2C18,1.8,18,0.9,17.8,0l-1.1,0.2v0C16.8,1,16.8,1.7,16.6,2.4z"/>
</g>
</svg>
