<?xml version="1.0" encoding="iso-8859-1"?>
<!-- Generator: Adobe Illustrator 24.0.1, SVG Export Plug-In . SVG Version: 6.00 Build 0)  -->
<svg version="1.1" id="Layer_1" xmlns="http://www.w3.org/2000/svg" xmlns:xlink="http://www.w3.org/1999/xlink" x="0px" y="0px"
	 viewBox="0 0 27.385 29.058" enable-background="new 0 0 27.385 29.058" xml:space="preserve">
<path fill="none" stroke="#185c37" stroke-width="2" d="M24.622,28.058h-6.346c-0.965,0.009-1.754-0.766-1.763-1.731c0,0,0,0,0,0
	v-6.231c-0.008-0.771-0.639-1.391-1.41-1.385h-2.821c-0.771-0.006-1.402,0.614-1.41,1.385v6.231
	c-0.009,0.965-0.798,1.74-1.763,1.731c0,0,0,0,0,0H2.763C1.798,28.067,1.009,27.292,1,26.327c0,0,0,0,0,0V13.113
	c0.004-1.599,0.748-3.106,2.016-4.08L13.037,1.28c0.386-0.296,0.923-0.296,1.309,0l10.023,7.753c1.267,0.974,2.011,2.48,2.015,4.078
	v13.216C26.375,27.291,25.586,28.066,24.622,28.058z"/>
</svg>
