<svg width="55" height="48" viewBox="0 0 55 48" fill="none" xmlns="http://www.w3.org/2000/svg">
<g clip-path="url(#clip0)">
<path d="M27.964 45.0405C27.964 45.2707 27.751 45.4573 27.4889 45.4573C27.2267 45.4573 27.0138 45.2701 27.0138 45.0405V9.47344C27.0138 9.2439 27.2268 9.0575 27.4889 9.0575C27.7511 9.0575 27.964 9.24467 27.964 9.47344V45.0405Z" fill="#7DA81D"/>
<path d="M27.4882 47.8466C28.5212 47.8466 29.3586 47.1135 29.3586 46.2092C29.3586 45.3049 28.5212 44.5718 27.4882 44.5718C26.4552 44.5718 25.6178 45.3049 25.6178 46.2092C25.6178 47.1135 26.4552 47.8466 27.4882 47.8466Z" fill="#7DA81D"/>
<path d="M27.5062 0C25.5314 0.848558 24.0352 4.66535 24.0352 6.48772C24.0352 8.3101 25.5313 9.82139 27.5062 10.1438V0Z" fill="#7DA81D"/>
<path d="M27.4715 0C29.4462 0.848558 30.9407 4.66535 30.9407 6.48772C30.9407 8.3101 29.4446 9.82139 27.4715 10.1438V0Z" fill="#469315"/>
<path d="M36.2312 11.3736C34.1477 10.7523 30.0077 12.5272 28.5348 13.815C27.0655 15.1029 26.8998 17.0982 28.0364 18.5476L36.2312 11.3736Z" fill="#7DA81D"/>
<path d="M36.2088 11.354C36.9176 13.1763 34.8911 16.8022 33.4218 18.0901C31.9489 19.3788 29.6706 19.5207 28.0141 18.528L36.2088 11.354Z" fill="#469315"/>
<path d="M36.2312 19.7976C34.1477 19.1755 30.0077 20.9496 28.5348 22.2383C27.0655 23.5262 26.8998 25.5214 28.0364 26.9701L36.2312 19.7976Z" fill="#7DA81D"/>
<path d="M36.2088 19.7781C36.9176 21.6005 34.8911 25.2256 33.4218 26.5142C31.9489 27.8021 29.6706 27.9448 28.0141 26.9514L36.2088 19.7781Z" fill="#469315"/>
<path d="M36.2312 28.2211C34.1477 27.5983 30.0077 29.3731 28.5348 30.661C27.0655 31.9496 26.8998 33.9441 28.0364 35.3935L36.2312 28.2211Z" fill="#7DA81D"/>
<path d="M36.2088 28.2014C36.9176 30.0238 34.8911 33.6497 33.4218 34.9376C31.9489 36.2254 29.6706 36.3689 28.0141 35.3755L36.2088 28.2014Z" fill="#469315"/>
<path d="M34.7712 37.9171C33.0603 37.4068 29.6533 38.866 28.4461 39.9252C27.2354 40.9836 27.1008 42.6248 28.0339 43.8169L34.7712 37.9171Z" fill="#7DA81D"/>
<path d="M34.7531 37.903C35.3369 39.4015 33.6717 42.3827 32.461 43.4418C31.2503 44.5001 29.3791 44.6179 28.0149 43.8011L34.7531 37.903Z" fill="#469315"/>
<path d="M18.7448 11.3736C20.8283 10.7523 24.9683 12.5272 26.4412 13.815C27.9105 15.1029 28.0762 17.0982 26.9396 18.5476L18.7448 11.3736Z" fill="#7DA81D"/>
<path d="M18.7691 11.354C18.0585 13.1763 20.085 16.8022 21.5561 18.0901C23.029 19.3788 25.3055 19.5207 26.962 18.528L18.7691 11.354Z" fill="#469315"/>
<path d="M18.7448 19.7976C20.8283 19.1755 24.9683 20.9496 26.4412 22.2383C27.9105 23.5262 28.0762 25.5214 26.9396 26.9701L18.7448 19.7976Z" fill="#7DA81D"/>
<path d="M18.7691 19.7781C18.0585 21.6005 20.085 25.2256 21.5561 26.5142C23.029 27.8021 25.3055 27.9448 26.962 26.9514L18.7691 19.7781Z" fill="#469315"/>
<path d="M18.7448 28.2211C20.8283 27.5983 24.9683 29.3731 26.4412 30.661C27.9105 31.9496 28.0762 33.9441 26.9396 35.3935L18.7448 28.2211Z" fill="#7DA81D"/>
<path d="M18.7691 28.2014C18.0585 30.0238 20.085 33.6497 21.5561 34.9376C23.029 36.2254 25.3055 36.3689 26.962 35.3755L18.7691 28.2014Z" fill="#469315"/>
<path d="M20.2049 37.9171C21.9175 37.4068 25.3228 38.866 26.5318 39.9252C27.7425 40.9836 27.877 42.6248 26.9422 43.8169L20.2049 37.9171Z" fill="#7DA81D"/>
<path d="M20.2247 37.9029C19.6408 39.4014 21.3043 42.3826 22.5167 43.4417C23.7274 44.5001 25.5969 44.6179 26.9612 43.801L20.2247 37.9029Z" fill="#469315"/>
<path d="M10.9607 34.7556C10.9625 34.7587 10.9642 34.7601 10.9642 34.7601L10.9693 34.7594C12.0067 35.3708 13.4236 35.2795 14.3402 34.4763C15.2577 33.673 16.515 31.4249 16.0916 30.2759L16.102 30.2668L16.0899 30.2645L16.0882 30.2548L16.0778 30.2631C14.7636 29.8924 12.1947 30.9931 11.2781 31.7963C11.1375 31.9201 11.0228 32.0553 10.9211 32.1965V29.4131C10.9331 29.4304 10.9409 29.4493 10.9538 29.4667L10.9503 29.4697L10.9589 29.4742C10.9625 29.4773 10.9625 29.4803 10.9658 29.4833L10.9693 29.4796C12.0067 30.0911 13.4236 29.999 14.3402 29.1965C15.2577 28.3933 16.515 26.1436 16.0916 24.9954L16.102 24.9863L16.0899 24.984C16.0882 24.9809 16.0882 24.9764 16.0882 24.9735L16.0778 24.9826C14.7636 24.6126 12.1947 25.7141 11.2781 26.5166C11.1375 26.6404 11.0228 26.7763 10.9211 26.9167V24.1409C11.9998 23.842 12.7854 22.9693 12.7854 21.9244C12.7854 20.789 11.8601 18.4193 10.6322 17.869V17.8577C10.6287 17.8592 10.6253 17.8622 10.6253 17.8622C10.6184 17.8622 10.6149 17.8591 10.6115 17.8577V17.869C9.38437 18.4193 8.45657 20.789 8.45657 21.9244C8.45657 22.9693 9.24391 23.8426 10.3236 24.1409V26.9174C10.2219 26.7763 10.1062 26.6396 9.96481 26.5166C9.0473 25.7149 6.47846 24.6126 5.16597 24.9826L5.15557 24.9735C5.15469 24.9765 5.15557 24.981 5.15469 24.984L5.14265 24.9863L5.15305 24.9954C4.72883 26.1436 5.98692 28.3933 6.90356 29.1965C7.82107 29.999 9.23702 30.0911 10.2726 29.4788L10.2778 29.4833C10.2813 29.4803 10.2813 29.4765 10.2847 29.4736L10.2916 29.4698L10.2881 29.4668C10.3019 29.4494 10.3097 29.4305 10.3234 29.4132V32.1973C10.2217 32.0561 10.1061 31.9202 9.9647 31.7964C9.04719 30.9932 6.47835 29.8925 5.16586 30.2632L5.15546 30.2548C5.15458 30.2578 5.15546 30.2617 5.15458 30.2646L5.14254 30.2669L5.15294 30.276C4.72872 31.4243 5.98681 33.6731 6.90345 34.4764C7.82096 35.2796 9.23691 35.3709 10.2743 34.7595L10.2778 34.7625C10.2795 34.7602 10.2813 34.758 10.2829 34.7557L10.2916 34.7512L10.2881 34.7482C10.3019 34.73 10.3097 34.7112 10.3234 34.6923V37.4772C10.2217 37.336 10.1061 37.1993 9.9647 37.0763C9.04719 36.2738 6.47835 35.1723 5.16586 35.5431L5.15546 35.5339C5.15458 35.537 5.15546 35.5415 5.15458 35.5453L5.14254 35.5468L5.15294 35.5551C4.72872 36.7034 5.98681 38.953 6.90345 39.7555C7.82096 40.5587 9.23691 40.6508 10.2743 40.0393L10.2778 40.0424C10.2795 40.0401 10.2813 40.0371 10.2813 40.0371L10.2917 40.0303L10.2882 40.0274C10.302 40.0092 10.3098 39.9904 10.3236 39.9722V43.2221C10.2382 43.1022 10.1416 42.9866 10.0209 42.8824C9.26887 42.2219 7.15535 41.3159 6.07658 41.621L6.06793 41.6142L6.06618 41.6225L6.05578 41.624L6.06443 41.6316C5.71608 42.5752 6.74996 44.4255 7.50534 45.0861C8.25984 45.7466 9.42061 45.8214 10.276 45.3194L10.2778 45.3217C10.2795 45.3202 10.2795 45.318 10.2795 45.318C10.2795 45.318 10.2882 45.3134 10.2916 45.3111L10.2881 45.3081C10.3019 45.29 10.3097 45.2703 10.3234 45.2514V45.8335C9.82074 45.9497 9.44907 46.346 9.44907 46.8224C9.44907 47.3887 9.97247 47.8484 10.621 47.8484C11.2687 47.8484 11.7938 47.3887 11.7938 46.8224C11.7938 46.3461 11.4213 45.9497 10.9194 45.8327V45.253C10.9315 45.2703 10.941 45.29 10.9539 45.3081L10.9488 45.3111C10.9523 45.3134 10.9557 45.3142 10.9557 45.3142C10.9557 45.3142 10.9608 45.3203 10.9626 45.3218L10.9661 45.3195C11.8198 45.8223 12.983 45.7467 13.7368 45.0862C14.4921 44.4257 15.5261 42.5746 15.176 41.6309L15.1847 41.6241L15.176 41.6226L15.1752 41.6143L15.1665 41.6211C14.0886 41.3161 11.9742 42.2227 11.2214 42.8825C11.1015 42.9867 11.0049 43.1029 10.9195 43.2229V39.9722C10.9316 39.9896 10.9411 40.0092 10.954 40.0266L10.9489 40.0303L10.9593 40.0348C10.9593 40.0348 10.9628 40.0401 10.9644 40.0424L10.9679 40.0393C12.0053 40.6508 13.4221 40.5587 14.3388 39.7555C15.2563 38.9538 16.5136 36.7034 16.0902 35.5551L16.1006 35.5468L16.0885 35.5453L16.0868 35.5339L16.0764 35.5431C14.7622 35.1723 12.1933 36.2738 11.2766 37.0763C11.1361 37.2001 11.0213 37.3352 10.9196 37.4764V34.6923C10.9317 34.7096 10.9412 34.7293 10.9541 34.7474L10.949 34.7511L10.9607 34.7556Z" fill="#469315"/>
<path d="M44.694 34.7556C44.6958 34.7587 44.6975 34.7601 44.6975 34.7601L44.7027 34.7594C45.7401 35.3708 47.156 35.2795 48.0735 34.4763C48.9902 33.673 50.2484 31.4249 49.824 30.2759L49.8344 30.2668L49.8224 30.2645L49.8215 30.2548L49.8111 30.2631C48.497 29.8924 45.928 30.9931 45.0105 31.7963C44.8708 31.9201 44.7552 32.0553 44.6535 32.1965V29.4131C44.6656 29.4304 44.6733 29.4493 44.6871 29.4667L44.6836 29.4697L44.6923 29.4742C44.6957 29.4773 44.6957 29.4803 44.6992 29.4833L44.7027 29.4796C45.7401 30.0911 47.156 29.999 48.0735 29.1965C48.9902 28.3933 50.2484 26.1436 49.824 24.9954L49.8344 24.9863L49.8224 24.984C49.8215 24.9809 49.8215 24.9764 49.8215 24.9735L49.8111 24.9826C48.497 24.6126 45.928 25.7141 45.0105 26.5166C44.8708 26.6404 44.7552 26.7763 44.6535 26.9167V24.1409C45.7332 23.842 46.5188 22.9693 46.5188 21.9244C46.5188 20.789 45.5926 18.4193 44.3655 17.869V17.8577C44.362 17.8592 44.3586 17.8622 44.3586 17.8622C44.3517 17.8622 44.3482 17.8591 44.3448 17.8577V17.869C43.1168 18.4193 42.1899 20.789 42.1899 21.9244C42.1899 22.9693 42.9773 23.8426 44.056 24.1409V26.9174C43.9543 26.7763 43.8396 26.6396 43.6973 26.5166C42.7806 25.7149 40.2117 24.6126 38.8993 24.9826L38.8889 24.9735C38.8872 24.9765 38.8889 24.981 38.8872 24.984L38.8751 24.9863L38.8855 24.9954C38.4621 26.1436 39.7194 28.3933 40.6369 29.1965C41.5535 29.999 42.9704 30.0911 44.006 29.4788L44.0111 29.4833C44.0145 29.4803 44.0145 29.4765 44.018 29.4736L44.0249 29.4698L44.0214 29.4668C44.0343 29.4494 44.0421 29.4305 44.0559 29.4132V32.1973C43.9542 32.0561 43.8395 31.9202 43.6972 31.7964C42.7805 30.9932 40.2116 29.8925 38.8992 30.2632L38.8888 30.2548C38.8871 30.2578 38.8888 30.2617 38.8871 30.2646L38.875 30.2669L38.8854 30.276C38.462 31.4243 39.7193 33.6731 40.6368 34.4764C41.5534 35.2796 42.9702 35.3709 44.0076 34.7595L44.0111 34.7625C44.0129 34.7602 44.0145 34.758 44.0163 34.7557L44.0249 34.7512L44.0214 34.7482C44.0343 34.73 44.0421 34.7112 44.0559 34.6923V37.4772C43.9542 37.336 43.8395 37.1993 43.6972 37.0763C42.7805 36.2738 40.2116 35.1723 38.8992 35.5431L38.8888 35.5339C38.8871 35.537 38.8888 35.5415 38.8871 35.5453L38.875 35.5468L38.8854 35.5551C38.462 36.7034 39.7193 38.953 40.6368 39.7555C41.5534 40.5587 42.9702 40.6508 44.0076 40.0393L44.0111 40.0424C44.0129 40.0401 44.0145 40.0371 44.0145 40.0371L44.0249 40.0303L44.0214 40.0274C44.0343 40.0092 44.0421 39.9904 44.0559 39.9722V43.2221C43.9705 43.1022 43.874 42.9866 43.7541 42.8824C43.0012 42.2219 40.8886 41.3159 39.8089 41.621L39.8003 41.6142L39.7994 41.6225L39.789 41.624L39.7977 41.6316C39.4493 42.5752 40.4832 44.4255 41.2386 45.0861C41.9922 45.7466 43.1538 45.8214 44.0093 45.3194L44.011 45.3217C44.0128 45.3202 44.0128 45.318 44.0128 45.318C44.0128 45.318 44.0214 45.3134 44.0248 45.3111L44.0213 45.3081C44.0342 45.29 44.042 45.2703 44.0558 45.2514V45.8335C43.554 45.9497 43.1814 46.346 43.1814 46.8224C43.1814 47.3887 43.7048 47.8484 44.3542 47.8484C45.001 47.8484 45.5262 47.3887 45.5262 46.8224C45.5262 46.3461 45.1545 45.9497 44.6518 45.8327V45.253C44.6638 45.2703 44.6733 45.29 44.6871 45.3081L44.6836 45.3111C44.6871 45.3134 44.6905 45.3142 44.6905 45.3142C44.6905 45.3142 44.6957 45.3203 44.6974 45.3218L44.7009 45.3195C45.5546 45.8223 46.717 45.7467 47.4716 45.0862C48.227 44.4257 49.261 42.5746 48.9109 41.6309L48.9196 41.6241L48.9109 41.6226L48.9092 41.6143L48.9005 41.6211C47.8235 41.3161 45.7082 42.2227 44.9562 42.8825C44.8355 42.9867 44.7389 43.1029 44.6535 43.2229V39.9722C44.6656 39.9896 44.6751 40.0092 44.6889 40.0266L44.6837 40.0303L44.6941 40.0348C44.6941 40.0348 44.6977 40.0401 44.6993 40.0424L44.7028 40.0393C45.7402 40.6508 47.1561 40.5587 48.0736 39.7555C48.9903 38.9538 50.2485 36.7034 49.8241 35.5551L49.8345 35.5468L49.8225 35.5453L49.8216 35.5339L49.8112 35.5431C48.4971 35.1723 45.9281 36.2738 45.0106 37.0763C44.871 37.2001 44.7553 37.3352 44.6536 37.4764V34.6923C44.6657 34.7096 44.6752 34.7293 44.689 34.7474L44.6839 34.7511L44.694 34.7556Z" fill="#469315"/>
</g>
<defs>
<clipPath id="clip0">
<rect width="54.656" height="47.8481" fill="white" transform="translate(0.160431)"/>
</clipPath>
</defs>
</svg>
