<svg width="60" height="55" viewBox="0 0 60 55" fill="none" xmlns="http://www.w3.org/2000/svg">
<g clip-path="url(#clip0)">
<path d="M49.8914 51.1589H14.1841C13.027 51.1589 12.0888 50.285 12.0888 49.2069V1.95196C12.0888 0.873877 13.0268 0 14.1841 0H49.8914C51.0486 0 51.9868 0.873877 51.9868 1.95196V49.2071C51.9867 50.285 51.0486 51.1589 49.8914 51.1589Z" fill="#68706E" fill-opacity="0.91"/>
<path d="M45.7682 55H10.0609C8.90372 55 7.96554 54.1261 7.96554 53.0481V5.79297C7.96554 4.71499 8.9036 3.841 10.0609 3.841H45.7682C46.9254 3.841 47.8635 4.71488 47.8635 5.79297V53.0481C47.8635 54.1261 46.9255 55 45.7682 55Z" fill="#E5E5E5"/>
<path d="M45.7683 3.84108H41.3893C42.5465 3.84108 43.4846 4.71496 43.4846 5.79304V53.0481C43.4846 54.1261 42.5466 55.0001 41.3893 55.0001H45.7683C46.9255 55.0001 47.8636 54.1262 47.8636 53.0481V5.79294C47.8636 4.71496 46.9256 3.84108 45.7683 3.84108Z" fill="#E5E5E5"/>
<path d="M42.656 12.7048H31.1371C30.6795 12.7048 30.3084 12.3591 30.3084 11.9327C30.3084 11.5064 30.6795 11.1607 31.1371 11.1607H42.656C43.1136 11.1607 43.4847 11.5064 43.4847 11.9327C43.4846 12.3592 43.1136 12.7048 42.656 12.7048Z" fill="#3E5959"/>
<path d="M42.656 16.3163H31.1372C30.6795 16.3163 30.3084 15.9706 30.3084 15.5443C30.3084 15.1179 30.6795 14.7722 31.1372 14.7722H42.656C43.1137 14.7722 43.4847 15.1179 43.4847 15.5443C43.4846 15.9706 43.1137 16.3163 42.656 16.3163Z" fill="#3E5959"/>
<path d="M42.656 19.9277H31.1372C30.6795 19.9277 30.3084 19.582 30.3084 19.1557C30.3084 18.7293 30.6795 18.3836 31.1372 18.3836H42.656C43.1137 18.3836 43.4847 18.7293 43.4847 19.1557C43.4846 19.5821 43.1137 19.9277 42.656 19.9277Z" fill="#3E5959"/>
<path d="M42.6558 40.0831H31.9478C31.4901 40.0831 31.119 39.7374 31.119 39.3111C31.119 38.8847 31.4901 38.539 31.9478 38.539H42.6558C43.1135 38.539 43.4845 38.8847 43.4845 39.3111C43.4844 39.7374 43.1135 40.0831 42.6558 40.0831Z" fill="#3E5959"/>
<path d="M24.6922 32.5498H13.1734C12.7158 32.5498 12.3447 32.2041 12.3447 31.7778C12.3447 31.3514 12.7158 31.0057 13.1734 31.0057H24.6922C25.1499 31.0057 25.521 31.3514 25.521 31.7778C25.521 32.2041 25.1499 32.5498 24.6922 32.5498Z" fill="#3E5959"/>
<path d="M24.6922 28.9382H13.1734C12.7158 28.9382 12.3447 28.5925 12.3447 28.1662C12.3447 27.7398 12.7158 27.3941 13.1734 27.3941H24.6922C25.1499 27.3941 25.521 27.7398 25.521 28.1662C25.521 28.5926 25.1499 28.9382 24.6922 28.9382Z" fill="#3E5959"/>
<path d="M20.043 8.04466V15.2158H27.7409C27.7409 11.2554 24.2944 8.04466 20.043 8.04466Z" fill="#7DA81D"/>
<path d="M20.0429 8.04466C15.7915 8.04466 12.345 11.2553 12.345 15.2158C12.345 19.1764 15.7915 22.387 20.0429 22.387C24.2944 22.387 27.7408 19.1764 27.7408 15.2158H20.0429V8.04466Z" fill="#1D390B"/>
<path d="M42.932 34.1924H29.0932C28.7881 34.1924 28.5408 33.962 28.5408 33.6778V26.2664C28.5408 25.9822 28.7881 25.7517 29.0932 25.7517H42.932C43.2371 25.7517 43.4844 25.9822 43.4844 26.2664V33.6778C43.4844 33.962 43.2371 34.1924 42.932 34.1924Z" fill="#7DA81D"/>
<path d="M15.318 49.4798H12.8972C12.592 49.4798 12.3447 49.2494 12.3447 48.9652V37.7068C12.3447 37.4226 12.592 37.1922 12.8972 37.1922H15.318C15.6231 37.1922 15.8705 37.4226 15.8705 37.7068V48.9652C15.8705 49.2494 15.6231 49.4798 15.318 49.4798Z" fill="#1D390B"/>
<path d="M21.8955 49.4798H19.4747C19.1695 49.4798 18.9222 49.2494 18.9222 48.9652V40.6608C18.9222 40.3766 19.1695 40.1462 19.4747 40.1462H21.8955C22.2007 40.1462 22.448 40.3766 22.448 40.6608V48.9652C22.448 49.2494 22.2007 49.4798 21.8955 49.4798Z" fill="#364E27"/>
<path d="M28.4732 49.4798H26.0524C25.7472 49.4798 25.4999 49.2494 25.4999 48.9651V44.3411C25.4999 44.0568 25.7472 43.8264 26.0524 43.8264H28.4732C28.7783 43.8264 29.0257 44.0568 29.0257 44.3411V48.9651C29.0257 49.2494 28.7783 49.4798 28.4732 49.4798Z" fill="#1D390B"/>
<path d="M42.6558 43.8763H31.9478C31.4901 43.8763 31.119 43.5306 31.119 43.1042C31.119 42.6779 31.4901 42.3322 31.9478 42.3322H42.6558C43.1135 42.3322 43.4845 42.6779 43.4845 43.1042C43.4844 43.5307 43.1135 43.8763 42.6558 43.8763Z" fill="#3E5959"/>
<path d="M42.6558 47.6695H31.9478C31.4901 47.6695 31.119 47.3238 31.119 46.8975C31.119 46.4711 31.4901 46.1254 31.9478 46.1254H42.6558C43.1135 46.1254 43.4845 46.4711 43.4845 46.8975C43.4844 47.3238 43.1135 47.6695 42.6558 47.6695Z" fill="#3E5959"/>
</g>
<defs>
<clipPath id="clip0">
<rect width="59.04" height="55" fill="white" transform="translate(0.456127)"/>
</clipPath>
</defs>
</svg>
