<?xml version="1.0" encoding="utf-8"?>
<!-- Generator: Adobe Illustrator 24.0.1, SVG Export Plug-In . SVG Version: 6.00 Build 0)  -->
<svg version="1.1" id="Layer_1" xmlns="http://www.w3.org/2000/svg" xmlns:xlink="http://www.w3.org/1999/xlink" x="0px" y="0px"
	 viewBox="0 0 78.7 68.9" enable-background="new 0 0 78.7 68.9" xml:space="preserve">
<g transform="translate(-4 -7)">
	<path fill="#68706E" d="M78.8,7H43.4v66.9h35.4c2.2,0,3.9-1.8,3.9-3.9l0,0V11C82.7,8.8,81,7,78.8,7L78.8,7z"/>
	<path fill="#68706E" d="M43.4,7H7.9C5.8,7,4,8.8,4,10.9l0,0v59c0,2.2,1.8,3.9,3.9,3.9l0,0h35.4L43.4,7L43.4,7z"/>
	<path fill="#68706E" d="M37.5,70c0,3.3,2.6,5.9,5.9,5.9l0,0V64.1C40.1,64.1,37.5,66.7,37.5,70L37.5,70z"/>
	<path fill="#68706E" d="M49.3,70c0-3.3-2.6-5.9-5.9-5.9l0,0v11.8C46.6,75.9,49.3,73.2,49.3,70L49.3,70z"/>
	<path fill="#FFFFFF" d="M43.4,7H9.9c-1.1,0-2,0.9-2,2v59c0,1.1,0.9,2,2,2h33.5V7z"/>
	<path fill="#F0F0F0" d="M76.8,7H43.4v63h33.5c1.1,0,2-0.9,2-2l0,0V9C78.8,7.9,77.9,7,76.8,7z"/>
	<path fill="#68706E" d="M36.5,30.6H14.8c-0.5,0-1-0.4-1-1l0,0v-2c0-0.5,0.4-1,1-1h21.6c0.5,0,1,0.4,1,1v2
		C37.5,30.2,37,30.6,36.5,30.6L36.5,30.6z"/>
	<path fill="#68706E" d="M36.5,38.5H14.8c-0.5,0-1-0.4-1-1l0,0v-2c0-0.5,0.4-1,1-1h21.6c0.5,0,1,0.4,1,1v2
		C37.5,38,37,38.5,36.5,38.5L36.5,38.5z"/>
	<path fill="#68706E" d="M36.5,46.4H14.8c-0.5,0-1-0.4-1-1l0,0v-2c0-0.5,0.4-1,1-1h21.6c0.5,0,1,0.4,1,1v2
		C37.5,45.9,37,46.4,36.5,46.4L36.5,46.4z"/>
	<path fill="#68706E" d="M32.5,54.2H14.8c-0.5,0-1-0.4-1-1l0,0v-2c0-0.5,0.4-1,1-1h17.7c0.5,0,1,0.4,1,1v2
		C33.5,53.8,33.1,54.2,32.5,54.2L32.5,54.2z"/>
	<path fill="#7DA81D" d="M71,34h-3.3c-0.2-0.7-0.5-1.4-0.9-2.1H71c1.1,0,2-0.9,2-2s-0.9-2-2-2H59.9h-7.7c-1.1,0-2,0.9-2,2s0.9,2,2,2
		h7.7c1.5,0,2.8,0.8,3.5,2.1H52.3c-1.1,0-2,0.9-2,2c0,1.1,0.9,2,2,2h11.2c-0.7,1.2-2,2.1-3.5,2.1h-7.7c-0.8,0-1.5,0.5-1.8,1.2
		c-0.3,0.7-0.2,1.6,0.4,2.1l10.8,11.4c0.4,0.4,0.9,0.6,1.4,0.6c0.5,0,1-0.2,1.4-0.5c0.8-0.8,0.8-2,0.1-2.8L56.9,44h3.1
		c3.7,0,6.9-2.6,7.8-6H71c1.1,0,2-0.9,2-2S72.1,34,71,34z"/>
</g>
</svg>
