<svg width="45" height="61" viewBox="0 0 45 61" fill="none" xmlns="http://www.w3.org/2000/svg">
<path d="M20.7692 38.6296C12.9812 37.5948 7.3005 30.5669 7.76035 22.5363C8.22019 14.5056 14.6637 8.20619 22.5166 8.11101C30.3691 8.01583 36.9567 14.1569 37.6024 22.174C38.2476 30.1915 32.7308 37.3549 24.9694 38.5786C24.2152 38.6962 23.4529 38.7554 22.6901 38.7554C22.0478 38.7559 21.4059 38.7136 20.7692 38.6296ZM34.1502 23.4279C34.1497 16.9449 29.0184 11.6895 22.6892 11.69C16.3604 11.6905 11.2296 16.9463 11.23 23.4298C11.23 29.9133 16.3609 35.1686 22.6901 35.1686C29.0199 35.1686 34.1507 29.9118 34.1502 23.4279Z" fill="#68706E"/>
<path d="M22.6919 11.6889C29.0217 11.6889 34.153 16.9447 34.1534 23.4287C34.1534 29.9126 29.0222 35.1689 22.6924 35.1689C16.3627 35.1689 11.2314 29.9121 11.2319 23.4282C11.2319 16.9452 16.3627 11.6893 22.6919 11.6889Z" fill="#C3E42E"/>
<path d="M19.2529 53.5754H26.4928V59.7913H19.2529V53.5754Z" fill="#469315"/>
<path d="M26.4928 41.1026V53.5751H19.2529V41.1026H26.4928Z" fill="#68706E"/>
<path d="M24.9749 38.6157V41.1021H20.769V38.6293C21.4056 38.7133 22.0475 38.7556 22.6899 38.7551C23.4527 38.7551 24.215 38.6959 24.9692 38.5783L24.9749 38.6157Z" fill="#C3E42E"/>
<path d="M27.8764 17.2955C27.8764 16.7462 27.4429 16.3009 26.9082 16.3009H18.5864C18.0517 16.3009 17.6182 16.7462 17.6182 17.2955C17.6182 17.8447 18.0517 18.29 18.5864 18.29H20.9683C22.0604 18.29 22.9965 18.9116 23.3813 19.9061H18.5864C18.0517 19.9061 17.6182 20.3515 17.6182 20.9007C17.6182 21.4499 18.0517 21.8952 18.5864 21.8952H23.3841C23.2636 22.2454 23.0664 22.5625 22.8083 22.8223C22.3242 23.3336 21.6623 23.6265 20.9683 23.6357H18.5864C18.1916 23.6289 17.8338 23.8727 17.6858 24.2485C17.5383 24.6249 17.6314 25.0551 17.9207 25.3315L23.873 31.1055C24.2625 31.4823 24.8757 31.4638 25.2431 31.0637C25.6104 30.6635 25.5925 30.0337 25.2029 29.6564L21.0198 25.5961C23.1406 25.5592 24.957 24.0256 25.4029 21.8952H26.9082C27.4429 21.8952 27.8764 21.4499 27.8764 20.9007C27.8764 20.3515 27.4429 19.9061 26.9082 19.9061H25.4019C25.2748 19.3219 25.0303 18.7713 24.6838 18.29H26.9082C27.4429 18.29 27.8764 17.8447 27.8764 17.2955Z" fill="#0B151E"/>
<path d="M22.6304 10.6942C15.7832 10.6942 10.2323 16.3953 10.2319 23.4285C10.2319 30.4617 15.7827 36.1633 22.6299 36.1633C29.4771 36.1633 35.0279 30.4617 35.0275 23.428C35.0199 16.3987 29.4738 10.7024 22.6304 10.6942ZM22.6304 34.1743C16.8526 34.1747 12.1688 29.3642 12.1683 23.4295C12.1683 17.4948 16.8517 12.6837 22.629 12.6833C28.4067 12.6833 33.0905 17.4938 33.091 23.428C33.0848 29.3598 28.4053 34.1675 22.6304 34.1743Z" fill="#0B151E"/>
<path d="M22.6269 7.10778C13.8649 7.10778 6.7265 14.4289 6.7265 23.4279C6.72035 31.2988 12.187 38.0508 19.7221 39.48V40.1701H19.1983C18.952 40.1574 18.7118 40.2512 18.5355 40.4279C18.3596 40.6052 18.2631 40.8494 18.2698 41.1024V59.7909C18.2598 60.0527 18.353 60.3076 18.5274 60.4985C18.7019 60.6893 18.9435 60.8005 19.1983 60.8069H26.4185C26.6733 60.8005 26.9149 60.6893 27.0894 60.4985C27.2638 60.3076 27.357 60.0527 27.347 59.7909V41.1024C27.3537 40.8494 27.2572 40.6052 27.0813 40.4279C26.905 40.2512 26.6648 40.1574 26.4185 40.1701H25.8947V39.4076C33.2553 37.8221 38.5253 31.1531 38.522 23.4279C38.522 14.4289 31.3888 7.10778 22.6269 7.10778ZM25.4106 58.8178H20.2063V54.591H25.4106V58.8178ZM25.4106 52.6019H20.2063V42.1591H25.4106V52.6019ZM21.6586 40.1701V39.7204C22.0217 39.7393 22.3106 39.75 22.6269 39.75C23.0628 39.75 23.4741 39.7301 23.9582 39.6932V40.1701H21.6586ZM33.1782 32.8066C31.0139 35.3848 28.0288 37.0888 24.7548 37.6157C23.4556 37.8017 22.1399 37.8245 20.8355 37.6837H20.8346C13.9018 36.6892 8.67386 30.6398 8.67386 23.4483C8.67386 15.5459 14.9334 9.10706 22.6273 9.10706C28.0874 9.10366 33.0468 12.3738 35.3175 17.4738C37.5883 22.5742 36.7524 28.5667 33.1787 32.8066H33.1782Z" fill="#0B151E"/>
<path d="M21.662 1.63151V4.24219C21.662 4.79142 22.0956 5.23673 22.6303 5.23673C23.165 5.23673 23.5985 4.79142 23.5985 4.24219V1.63151C23.5985 1.08227 23.165 0.636963 22.6303 0.636963C22.0956 0.636963 21.662 1.08227 21.662 1.63151Z" fill="#0B151E"/>
<path d="M43.8081 22.5169H41.2665C40.7318 22.5169 40.2983 22.9623 40.2983 23.5115C40.2983 24.0607 40.7318 24.506 41.2665 24.506H43.8081C44.3428 24.506 44.7764 24.0607 44.7764 23.5115C44.7764 22.9623 44.3428 22.5169 43.8081 22.5169Z" fill="#0B151E"/>
<path d="M3.86967 22.5169H1.32804C0.793329 22.5169 0.359795 22.9623 0.359795 23.5115C0.359795 24.0607 0.793329 24.506 1.32804 24.506H3.86967C4.40438 24.506 4.83792 24.0607 4.83792 23.5115C4.83792 22.9623 4.40438 22.5169 3.86967 22.5169Z" fill="#0B151E"/>
<path d="M36.9453 7.40394L35.1479 9.24978C34.7696 9.63827 34.7696 10.2681 35.1479 10.6566C35.5261 11.0451 36.1393 11.0451 36.5175 10.6571L38.3145 8.81078C38.6927 8.42228 38.6927 7.79244 38.3145 7.40443C37.9368 7.01594 37.3236 7.01594 36.9453 7.40443V7.40394Z" fill="#0B151E"/>
<path d="M8.70378 36.4123L6.90629 38.2581C6.52854 38.6466 6.52854 39.2764 6.90629 39.6649C7.28451 40.0534 7.8977 40.0534 8.27592 39.6649L10.0729 37.8186C10.4512 37.4301 10.4512 36.8008 10.0729 36.4123C9.69519 36.0238 9.082 36.0238 8.70378 36.4123Z" fill="#0B151E"/>
<path d="M36.4311 36.4123C36.0528 36.0238 35.4397 36.0238 35.0619 36.4123C34.6837 36.8008 34.6837 37.4301 35.0619 37.8186L36.8589 39.6649C37.2371 40.0534 37.8503 40.0534 38.2286 39.6649C38.6068 39.2764 38.6068 38.6471 38.2286 38.2581L36.4311 36.4123Z" fill="#0B151E"/>
<path d="M8.61772 10.6571C8.99594 11.0451 9.60913 11.0451 9.98735 10.6571C10.3651 10.2686 10.3651 9.63876 9.98735 9.25026L8.18986 7.40443C7.81164 7.01594 7.19845 7.01594 6.82071 7.40443C6.44249 7.79244 6.44249 8.42228 6.82071 8.81078L8.61772 10.6571Z" fill="#0B151E"/>
</svg>
