<svg id="Capa_1" enable-background="new 0 0 512 512" height="512" viewBox="0 0 512 512" width="512" xmlns="http://www.w3.org/2000/svg" xmlns:xlink="http://www.w3.org/1999/xlink"><linearGradient id="SVGID_1_" gradientUnits="userSpaceOnUse" x1="256" x2="256" y1="512" y2="0"><stop offset="0" stop-color="#c3ffe8"/><stop offset=".9973" stop-color="#f0fff4"/></linearGradient><linearGradient id="SVGID_2_" gradientUnits="userSpaceOnUse" x1="256" x2="256" y1="105" y2="407"><stop offset="0" stop-color="#00b59c"/><stop offset="1" stop-color="#9cffac"/></linearGradient><g><g><circle cx="256" cy="256" fill="url(#SVGID_1_)" r="256"/></g><g><g><path d="m287.34 282.647c27.887 0 52.956-15.492 65.429-40.439 1.379-2.75 1.232-6.02-.39-8.639-1.622-2.62-4.476-4.216-7.555-4.216h-31.34c-18.391 0-35.467 6.843-48.602 18.587v-36.351h22.458c27.887 0 52.956-15.492 65.429-40.439 1.379-2.75 1.232-6.02-.39-8.639-1.622-2.62-4.476-4.216-7.555-4.216h-31.34c-18.391 0-35.467 6.843-48.602 18.587v-45.234c0-4.901 3.981-8.882 8.882-8.882 4.91 0 8.882-3.973 8.882-8.882 0-4.91-3.973-8.882-8.882-8.882-14.694 0-26.647 11.953-26.647 26.647v9.704c-13.135-11.744-30.211-18.587-48.602-18.587h-31.34c-3.079 0-5.933 1.596-7.555 4.216s-1.77 5.89-.39 8.639c12.473 24.947 37.542 40.439 65.429 40.439h22.458v36.351c-13.135-11.744-30.211-18.587-48.602-18.587h-31.34c-3.079 0-5.933 1.596-7.555 4.216s-1.77 5.89-.39 8.639c12.473 24.947 37.542 40.439 65.429 40.439h22.458v36.351c-13.135-11.744-30.211-18.587-48.602-18.587h-31.34c-3.079 0-5.933 1.596-7.555 4.216s-1.77 5.89-.39 8.64c12.473 24.947 37.542 40.439 65.429 40.439h22.458v36.351c-13.135-11.744-30.211-18.587-48.602-18.587h-31.34c-3.079 0-5.933 1.596-7.555 4.216s-1.77 5.89-.39 8.639c12.473 24.947 37.542 40.439 65.429 40.439h22.458v8.882c0 4.91 3.973 8.882 8.882 8.882s8.882-3.973 8.882-8.882v-44.412h22.458c27.887 0 52.956-15.492 65.429-40.439 1.379-2.75 1.232-6.02-.39-8.639-1.622-2.62-4.476-4.216-7.555-4.216h-31.34c-18.391 0-35.467 6.843-48.602 18.587v-36.351z" fill="url(#SVGID_2_)"/></g></g></g></svg>