<?xml version="1.0" encoding="iso-8859-1"?>
<!-- Generator: Adobe Illustrator 24.0.1, SVG Export Plug-In . SVG Version: 6.00 Build 0)  -->
<svg version="1.1" id="Layer_1" xmlns="http://www.w3.org/2000/svg" xmlns:xlink="http://www.w3.org/1999/xlink" x="0px" y="0px"
	 viewBox="0 0 85.173 74.859" enable-background="new 0 0 85.173 74.859" xml:space="preserve">
<g transform="translate(54.897 14.972)">
	<path fill="#FABE2C" d="M4.991,2.5v9.981c0.083,1.378-0.967,2.563-2.346,2.645C1.267,15.209,0.083,14.159,0,12.781
		c-0.006-0.1-0.006-0.2,0-0.3V2.5c-0.083-1.378,0.967-2.563,2.346-2.645C3.724-0.228,4.908,0.822,4.991,2.2
		C4.997,2.3,4.997,2.4,4.991,2.5z"/>
</g>
<g transform="translate(64.878 9.981)">
	<path fill="#6AA9FF" d="M4.991,2.5v14.972c0.083,1.378-0.967,2.563-2.346,2.645C1.267,20.2,0.083,19.15,0,17.772
		c-0.006-0.1-0.006-0.2,0-0.3V2.5c-0.083-1.378,0.967-2.563,2.346-2.645C3.724-0.228,4.908,0.822,4.991,2.2
		C4.997,2.3,4.997,2.4,4.991,2.5z"/>
</g>
<g transform="translate(74.859 4.991)">
	<path fill="#FF435B" d="M4.991,2.5v19.958c-0.083,1.378-1.267,2.428-2.645,2.346C1.083,24.728,0.076,23.721,0,22.458V2.5
		c0.083-1.378,1.267-2.428,2.645-2.346C3.908,0.23,4.915,1.237,4.991,2.5z"/>
</g>
<path fill="#FED843" d="M44.915,2.5v32.434L23.785,33.6l-16-10.39C13.543,9.156,27.232-0.018,42.42,0
	C43.799,0.003,44.915,1.121,44.915,2.5z"/>
<path fill="#FF7B4A" d="M79.85,37.434c0.011,19.708-15.27,36.044-34.934,37.347c-0.825,0.055-1.659,0.082-2.5,0.083
	c-6.203,0.006-12.311-1.534-17.77-4.48l4.974-20.307l15.295-15.143h32.439C78.733,34.936,79.85,36.055,79.85,37.434z"/>
<path fill="#FF435B" d="M79.85,37.434c0.008,19.706-15.272,36.039-34.934,37.342V34.934h32.439
	C78.734,34.937,79.85,36.055,79.85,37.434z"/>
<path fill="#7ED8F6" d="M44.916,34.934l-21.543,37.68c-0.733,1.167-2.271,1.521-3.44,0.792C3.33,63.008-4.01,42.604,2.166,24.012
	C2.604,22.706,4.015,22,5.323,22.433L44.916,34.934z"/>
<g transform="translate(49.906 24.953)">
	<path fill="#61729B" d="M35.267,2.5c0,1.381-1.119,2.5-2.5,2.5H2.5C1.122,5.083-0.063,4.033-0.145,2.654
		C-0.228,1.276,0.822,0.092,2.2,0.009c0.1-0.006,0.2-0.006,0.3,0h30.276C34.15,0.014,35.262,1.126,35.267,2.5z"/>
</g>
</svg>
