<?xml version="1.0" encoding="utf-8"?>
<!-- Generator: Adobe Illustrator 24.0.1, SVG Export Plug-In . SVG Version: 6.00 Build 0)  -->
<svg version="1.1" id="Layer_1" xmlns="http://www.w3.org/2000/svg" xmlns:xlink="http://www.w3.org/1999/xlink" x="0px" y="0px"
	 viewBox="0 0 15.5 15.5" enable-background="new 0 0 15.5 15.5" xml:space="preserve">
<g transform="translate(2.961 -1.404)">
	<g transform="translate(-2.961 1.404)">
		<path fill="#FEDB41" d="M7.8,0C3.5,0,0,3.5,0,7.7c0,4.3,3.5,7.8,7.8,7.8s7.8-3.5,7.8-7.8S12.1,0,7.8,0z"/>
		<path fill="#FEA832" d="M7.8,1.8c-3.3,0-6,2.6-6,5.9s2.6,6,5.9,6s6-2.6,6-5.9c0,0,0,0,0-0.1C13.7,4.5,11,1.9,7.8,1.8z"/>
		<path fill="#FEDB41" d="M10.4,6h-1C9.4,5.8,9.3,5.6,9.2,5.4h1.2c0.3,0,0.6-0.3,0.6-0.6c0-0.3-0.3-0.6-0.6-0.6H7.2H5
			c-0.3,0-0.6,0.3-0.6,0.6c0,0.3,0.3,0.6,0.6,0.6h2.2c0.4,0,0.8,0.2,1,0.6H5C4.7,6,4.4,6.3,4.4,6.6S4.7,7.2,5,7.2h3.3
			C8,7.6,7.7,7.8,7.2,7.8H5c-0.2,0-0.4,0.1-0.5,0.3c-0.1,0.2,0,0.5,0.1,0.6l3.1,3.3c0.1,0.1,0.3,0.2,0.4,0.2c0.1,0,0.3-0.1,0.4-0.2
			c0.2-0.2,0.2-0.6,0-0.8L6.3,9h0.9c1.1,0,2-0.7,2.3-1.8h1c0.3,0,0.6-0.3,0.6-0.6S10.8,6,10.4,6z"/>
	</g>
</g>
</svg>
