<svg xmlns="http://www.w3.org/2000/svg" width="20.237" height="28.201" viewBox="0 0 28.201 28.201"><defs><style>.a{fill:none;stroke:#515151;stroke-width:1.2px;}</style></defs><g transform="translate(0.6 0.6)"><path class="a" d="M100.317,65.026h1.21l-1.883-7.039a2.793,2.793,0,0,0,1.974-3.422l1.5-.4V52.238l-6.48,1.736,2.328,8.687.449,1.676a.931.931,0,0,0,.9.689Zm0,0" transform="translate(-91.018 -49.198)"/><path class="a" d="M248.38,32h-5.586A2.793,2.793,0,0,1,240,34.793V45.966h6.052a1.4,1.4,0,1,1,0,2.793h1.862a1.4,1.4,0,1,1,0,2.793h-1.862a1.4,1.4,0,1,1,0,2.793H244.19a1.392,1.392,0,0,1,1.311.931h2.879a2.793,2.793,0,0,1,2.793-2.793V34.793A2.793,2.793,0,0,1,248.38,32Zm0,0" transform="translate(-226.034 -30.138)"/><path class="a" d="M208,0V15.828h1.862V4.655a2.793,2.793,0,0,0,2.793-2.793h5.586a2.793,2.793,0,0,0,2.793,2.793v17.69a2.793,2.793,0,0,0-2.793,2.793h-2.879a1.38,1.38,0,0,1,.086.466,1.4,1.4,0,0,1-1.4,1.4H222.9V0Zm0,0" transform="translate(-195.896)"/><path class="a" d="M148.238,89.181l1.886,7.039h1.592V85.359l-1.5.4a2.793,2.793,0,0,1-1.974,3.422Zm0,0" transform="translate(-139.612 -80.392)"/><path class="a" d="M4.655,240H0v13.035H4.655Zm0,0" transform="translate(0 -226.034)"/><path class="a" d="M293.586,186.793A2.793,2.793,0,1,1,290.793,184,2.793,2.793,0,0,1,293.586,186.793Zm0,0" transform="translate(-271.241 -173.293)"/><path class="a" d="M97.225,236.5H95.363a1.4,1.4,0,1,0,0-2.793H84.644a.931.931,0,0,1-.9-.69l-.449-1.676L81.67,232.97a.932.932,0,0,1-.658.274H80v10.242h1.086a.931.931,0,0,1,.559.186l1.366,1.024a.931.931,0,0,0,.559.186H93.5a1.4,1.4,0,1,0,0-2.793h1.862a1.4,1.4,0,1,0,0-2.793h1.862a1.4,1.4,0,1,0,0-2.793Zm0,0" transform="translate(-75.345 -217.882)"/><path class="a" d="M328,96h.931v2.793H328Zm0,0" transform="translate(-308.913 -90.414)"/><g transform="translate(13.966 17.69)"><path class="a" d="M240,304.931h6.052a1.392,1.392,0,0,0,1.311-.931H240Zm0,0" transform="translate(-240 -304)"/><path class="a" d="M240,400.931h6.052a1.392,1.392,0,0,0,1.311-.931H240Zm0,0" transform="translate(-240 -394.414)"/><path class="a" d="M240,448.931h4.19A1.392,1.392,0,0,0,245.5,448H240Zm0,0" transform="translate(-240 -439.62)"/><path class="a" d="M240,352.931h7.914a1.392,1.392,0,0,0,1.311-.931H240Zm0,0" transform="translate(-240 -349.207)"/></g></g></svg>