<?xml version="1.0" encoding="utf-8"?>
<!-- Generator: Adobe Illustrator 24.2.0, SVG Export Plug-In . SVG Version: 6.00 Build 0)  -->
<svg version="1.1" id="Layer_1" xmlns="http://www.w3.org/2000/svg" xmlns:xlink="http://www.w3.org/1999/xlink" x="0px" y="0px"
	 viewBox="0 0 47.4 34.3" enable-background="new 0 0 47.4 34.3" xml:space="preserve">
<path fill="#A9E570" d="M46,9.3H33.6c-2.7,0-3.6,1.8-3.6,3.1c0,2.9-2.8,5.3-6.3,5.3c-3.5,0-6.3-2.3-6.3-5.3
	c-0.1-1.8-1.6-3.2-3.4-3.1c-0.1,0-0.1,0-0.2,0H1.4c-0.7,0-1.3,0.5-1.4,1.2v13.6c0.2,2.1,2,3.7,4.2,3.6h39c2.1,0.1,4-1.5,4.2-3.6
	V10.4C47.3,9.7,46.7,9.2,46,9.3z"/>
<path fill="#DEA06D" d="M24.3,0.1c-0.3-0.2-0.7-0.2-1,0c-2.8,1.3-4.4,3.5-4.4,6V9c0,2.5,1.6,4.7,4.4,6c0.2,0.1,0.3,0.1,0.5,0.1
	c0.2,0,0.3,0,0.5-0.1c2.8-1.3,4.4-3.5,4.4-6V6.1C28.7,3.7,27.1,1.4,24.3,0.1z"/>
<path fill="#DEA06D" d="M23.8,0c-0.2,0-0.3,0-0.5,0.1c-2.8,1.3-4.4,3.5-4.4,6V9c0,2.5,1.6,4.7,4.4,6c0.2,0.1,0.3,0.1,0.5,0.1L23.8,0
	z"/>
<path fill="#A67955" d="M3.5,22.1v4.4c0,4.3,1.6,7.9,3.6,7.9h33.5c2,0,3.6-3.6,3.6-7.9v-4.4H3.5z"/>
<path fill="#A9E570" d="M23.8,17.7c-2.9,0.1-5.3-2.3-5.4-5.2c0,0,0-0.1,0-0.1c0.1-1.7-1.3-3.1-2.9-3.1c-0.1,0-0.1,0-0.2,0H4.7
	c-0.7,0-1.2,0.5-1.2,1.2v13.6c0,2,1.6,3.6,3.6,3.6h16.7L23.8,17.7z"/>
<path fill="#A67955" d="M25.6,22.1H3.5v2.4c-0.1,2.3,1.6,4.2,3.9,4.3h18.2L25.6,22.1z"/>
</svg>
