<?xml version="1.0" encoding="iso-8859-1"?>
<!-- Generator: Adobe Illustrator 24.0.1, SVG Export Plug-In . SVG Version: 6.00 Build 0)  -->
<svg version="1.1" id="Layer_1" xmlns="http://www.w3.org/2000/svg" xmlns:xlink="http://www.w3.org/1999/xlink" x="0px" y="0px"
	 viewBox="0 0 78.893 78.893" enable-background="new 0 0 78.893 78.893" xml:space="preserve">
<g transform="translate(-122.7 -113.7)">
	<path fill="#A3A3D1" d="M201.594,150.846v34.817c-0.011,3.823-3.107,6.919-6.93,6.93c-3.825,0-11.56-3.1-11.56-6.93v-34.817
		H201.594z"/>
	<path fill="#F2F2FC" d="M187.705,185.663V113.7H122.7v69.634c0.018,5.091,4.14,9.213,9.231,9.231h62.7
		c-3.806,0.019-6.907-3.05-6.926-6.856C187.705,185.694,187.705,185.678,187.705,185.663z"/>
	<path fill="#D8D8FC" d="M129.658,146.216h23.258v4.629h-23.258V146.216z"/>
	<path fill="#A3A3D1" d="M162.147,146.216h18.628v4.629h-18.628V146.216z"/>
	<path fill="#D8D8FC" d="M129.658,155.447h23.258v4.629h-23.258V155.447z"/>
	<path fill="#A3A3D1" d="M162.147,155.447h18.628v4.629h-18.628V155.447z"/>
	<path fill="#D8D8FC" d="M129.658,164.706h23.258v4.629h-23.258V164.706z"/>
	<path fill="#D8D8FC" d="M129.658,173.937h23.258v4.629h-23.258V173.937z"/>
	<path fill="#A3A3D1" d="M180.775,178.566h-18.628v-13.86h18.628V178.566z"/>
	<path fill="#FF641A" d="M129.658,122.959v18.628h51.145v-18.628H129.658z"/>
</g>
</svg>
