<svg width="17" height="20" viewBox="0 0 17 20" fill="none" xmlns="http://www.w3.org/2000/svg">
<path fill-rule="evenodd" clip-rule="evenodd" d="M14.3846 11.2857C14.5154 12.1429 14.6462 12.8571 14.9077 13.7143L15.6923 16.1429L15.0385 17.1429H10.4615C10.4615 17.8571 10.2 18.5714 9.67692 19.1429C9.15385 19.7143 8.5 20 7.84615 20C7.19231 20 6.40769 19.7143 6.01538 19.1429C5.49231 18.5714 5.23077 17.8571 5.23077 17.1429H0.653846L0 16.1429L0.784615 13.7143C1.04615 12.5714 1.30769 11.4286 1.30769 10.2857V7.14286C1.30769 6.14286 1.43846 5.14286 1.83077 4.28571C2.22308 3.28571 2.74615 2.57143 3.4 1.85714C4.05385 1.14286 4.83846 0.714286 5.75385 0.428571C6.40769 0.142857 7.19231 0 7.84615 0C7.58462 0.428571 7.32308 1 7.06154 1.57143C6.8 1.57143 6.53846 1.57143 6.14615 1.85714C5.49231 2 4.83846 2.42857 4.31538 3C3.79231 3.42857 3.26923 4.14286 3.00769 4.85714C2.74615 5.57143 2.61538 6.28571 2.61538 7.14286V10.2857C2.61538 11.5714 2.35385 12.8571 2.09231 14.1429L1.56923 15.7143H14.1231L13.6 14.1429C13.3712 13.3914 13.2417 12.5286 13.1253 11.7514L13.0769 11.4286C13.6 11.4286 13.9923 11.4286 14.3846 11.2857ZM7.84615 18.5714C8.10769 18.5714 8.5 18.4286 8.76154 18.1429C9.02308 17.8571 9.15385 17.5714 9.15385 17.1429H6.53846C6.53846 17.5714 6.66923 17.8571 6.93077 18.1429C7.19231 18.4286 7.58462 18.5714 7.84615 18.5714ZM17 4.28571C17 5.42236 16.5867 6.51244 15.851 7.31617C15.1152 8.1199 14.1174 8.57143 13.0769 8.57143C12.0365 8.57143 11.0386 8.1199 10.3029 7.31617C9.56717 6.51244 9.15385 5.42236 9.15385 4.28571C9.15385 3.14907 9.56717 2.05898 10.3029 1.25526C11.0386 0.451529 12.0365 0 13.0769 0C14.1174 0 15.1152 0.451529 15.851 1.25526C16.5867 2.05898 17 3.14907 17 4.28571Z" fill="#0B151E"/>
</svg>
