<?xml version="1.0" encoding="utf-8"?>
<!-- Generator: Adobe Illustrator 24.2.0, SVG Export Plug-In . SVG Version: 6.00 Build 0)  -->
<svg version="1.1" id="Layer_1" xmlns="http://www.w3.org/2000/svg" xmlns:xlink="http://www.w3.org/1999/xlink" x="0px" y="0px"
	 viewBox="0 0 26.9 28" enable-background="new 0 0 26.9 28" xml:space="preserve">
<g transform="translate(1 1)">
	<path fill="none" stroke="#185c37" stroke-width="2" d="M15.2,21.7c0,2.4-1.9,4.3-4.3,4.3s-4.3-1.9-4.3-4.3s1.9-4.3,4.3-4.3
		S15.2,19.3,15.2,21.7L15.2,21.7z"/>
	<path fill="#FFFFFF" stroke="#185c37" stroke-width="2" d="M18.4,12.9c-4.1-0.6-7-4.4-6.4-8.6c0.1-0.7,0.3-1.4,0.6-2
		C8.5,1.4,4.4,3.9,3.5,8C3.3,8.6,3.3,9.2,3.3,9.8v3c0,2.1-0.9,4.2-2.6,5.6C-0.1,19-0.2,20.2,0.5,21c0.4,0.4,0.9,0.7,1.4,0.7h17.9
		c1,0,1.9-0.9,1.9-1.9c0-0.6-0.2-1.1-0.7-1.4C19.4,17,18.5,15,18.4,12.9z"/>
	<path fill="none" stroke="#185c37" stroke-width="2" d="M24.9,5.4c0,3-2.4,5.4-5.4,5.4c-3,0-5.4-2.4-5.4-5.4S16.5,0,19.5,0
		c0,0,0,0,0,0C22.5,0,24.9,2.4,24.9,5.4z"/>
</g>
</svg>
