<?xml version="1.0" encoding="utf-8"?>
<!-- Generator: Adobe Illustrator 24.0.1, SVG Export Plug-In . SVG Version: 6.00 Build 0)  -->
<svg version="1.1" id="Layer_1" xmlns="http://www.w3.org/2000/svg" xmlns:xlink="http://www.w3.org/1999/xlink" x="0px" y="0px"
	 viewBox="0 0 258 258" enable-background="new 0 0 258 258" xml:space="preserve">
<g id="graphic-confirmation" transform="translate(-0.144 0)">
	<path id="bg" fill="#F9FFF5" d="M129.1,0c71.2,0,129,57.8,129,129s-57.8,129-129,129s-129-57.8-129-129S57.9,0,129.1,0z"/>
	<g id="plus_icon_2" transform="translate(157.153 215.455)">
		
			<line id="Line_6" fill="none" stroke="#21A366" stroke-width="4" stroke-linecap="round" stroke-linejoin="round" x1="4.3" y1="0" x2="4.3" y2="8.5"/>
		
			<line id="Line_5" fill="none" stroke="#21A366" stroke-width="4" stroke-linecap="round" stroke-linejoin="round" x1="8.5" y1="4.3" x2="0" y2="4.3"/>
	</g>
	<g id="plus_icon" transform="translate(62.033 46.546)">
		
			<line id="Line_4" fill="none" stroke="#21A366" stroke-width="4" stroke-linecap="round" stroke-linejoin="round" x1="4.3" y1="0" x2="4.3" y2="8.5"/>
		
			<line id="Line_3" fill="none" stroke="#21A366" stroke-width="4" stroke-linecap="round" stroke-linejoin="round" x1="8.5" y1="4.3" x2="0" y2="4.3"/>
	</g>
	
		<ellipse id="bg_3" fill="none" stroke="#21A366" stroke-width="4" stroke-linecap="round" stroke-linejoin="round" cx="218.2" cy="146.9" rx="5.1" ry="5.1"/>
	
		<ellipse id="bg_2" fill="none" stroke="#21A366" stroke-width="4" stroke-linecap="round" stroke-linejoin="round" cx="141.9" cy="46.5" rx="5.1" ry="5.1"/>
	
		<ellipse id="bg_1" fill="none" stroke="#21A366" stroke-width="4" stroke-linecap="round" stroke-linejoin="round" cx="48.6" cy="151.4" rx="5.1" ry="5.1"/>
	<path id="Path_7" fill="#84C3A6" stroke="#21A366" stroke-width="4" stroke-linecap="round" stroke-linejoin="round" d="M129.1,202
		l-53.7-23v-78.2l53.7,23V202z"/>
	<path id="Path_6" fill="#A3FFD5" stroke="#21A366" stroke-width="4" stroke-linecap="round" stroke-linejoin="round" d="M182.8,179
		l-53.7,23v-78.2l53.7-23V179z"/>
	<path id="Path_5" fill="#33C481" stroke="#21A366" stroke-width="4" stroke-linecap="round" stroke-linejoin="round" d="
		M182.8,100.8l-53.7-23l-53.7,23l53.7,23L182.8,100.8z"/>
	<path id="Path_4" fill="#C6FFE5" stroke="#21A366" stroke-width="4" stroke-linecap="round" stroke-linejoin="round" d="
		M129.1,123.8l-30.3,13l-53.7-23l30.3-13L129.1,123.8z"/>
	<path id="Path_3" fill="#C6FFE5" stroke="#21A366" stroke-width="4" stroke-linecap="round" stroke-linejoin="round" d="
		M129.1,123.8l30.3,13l53.7-23l-30.3-13L129.1,123.8z"/>
	<path id="Path_2" fill="#C6FFE5" stroke="#21A366" stroke-width="4" stroke-linecap="round" stroke-linejoin="round" d="M48.6,89.3
		l26.8,11.5l53.7-23l-26.8-11.5L48.6,89.3z"/>
	<path id="Path_1" fill="#C6FFE5" stroke="#21A366" stroke-width="4" stroke-linecap="round" stroke-linejoin="round" d="
		M209.7,89.3l-26.8,11.5l-53.7-23L156,66.4L209.7,89.3z"/>
	<g id="Tick_icon" transform="translate(109.79 70.323)">
		
			<ellipse id="bg-2" fill="#F2FFF1" stroke="#21A366" stroke-width="4" stroke-linecap="round" stroke-linejoin="round" cx="19.3" cy="19.3" rx="19.3" ry="19.3"/>
		<path id="icon_tick" fill="none" stroke="#21A366" stroke-width="4" stroke-linecap="round" stroke-linejoin="round" d="
			M11.6,21.1l4.6,4.6l10.9-10.9"/>
	</g>
	
		<line id="Line_2" fill="none" stroke="#33C481" stroke-width="4" stroke-linecap="round" stroke-linejoin="round" x1="157.2" y1="174.7" x2="137.7" y2="183"/>
	
		<line id="Line_1" fill="none" stroke="#33C481" stroke-width="4" stroke-linecap="round" stroke-linejoin="round" x1="151" y1="183.5" x2="137.7" y2="189.2"/>
</g>
</svg>
