<svg width="23" height="21" viewBox="0 0 23 21" fill="none" xmlns="http://www.w3.org/2000/svg">
<path d="M16.2969 10.3146H22.1579M11.6082 1V6.17476V1Z" stroke="#68706E" stroke-linecap="round" stroke-linejoin="round"/>
<path d="M8.00699 12.9879L3.98755 16.0079" stroke="#68706E" stroke-linecap="round" stroke-linejoin="round"/>
<path d="M11.6084 14.4555C14.198 14.4555 16.2972 12.6021 16.2972 10.3157C16.2972 8.02936 14.198 6.1759 11.6084 6.1759C9.01891 6.1759 6.91968 8.02936 6.91968 10.3157C6.91968 12.6021 9.01891 14.4555 11.6084 14.4555Z" stroke="#68706E" stroke-linecap="round" stroke-linejoin="round"/>
<path d="M11.6083 19.6292C17.4347 19.6292 22.158 15.4589 22.158 10.3146C22.158 5.17028 17.4347 1 11.6083 1C5.78186 1 1.05859 5.17028 1.05859 10.3146C1.05859 15.4589 5.78186 19.6292 11.6083 19.6292Z" stroke="#68706E" stroke-linecap="round" stroke-linejoin="round"/>
</svg>
