<?xml version="1.0" encoding="utf-8"?>
<!-- Generator: Adobe Illustrator 24.2.0, SVG Export Plug-In . SVG Version: 6.00 Build 0)  -->
<svg version="1.1" id="Layer_1" xmlns="http://www.w3.org/2000/svg" xmlns:xlink="http://www.w3.org/1999/xlink" x="0px" y="0px"
	 viewBox="0 0 15.5 15.5" enable-background="new 0 0 15.5 15.5" xml:space="preserve">
<g transform="translate(2.961 -1.404)">
	<g transform="translate(-2.961 1.404)">
		<path fill="#FEDB41" d="M7.8,0C3.5,0,0,3.5,0,7.7c0,4.3,3.5,7.8,7.8,7.8c4.3,0,7.8-3.5,7.8-7.8S12.1,0,7.8,0z"/>
		<path fill="#FEA832" d="M7.8,1.8c-3.3,0-6,2.6-6,5.9s2.6,6,5.9,6c3.3,0,6-2.6,6-5.9c0,0,0,0,0-0.1C13.7,4.5,11,1.9,7.8,1.8z"/>
		<path fill="#FEDB41" d="M8.7,7.3H8.2V5.5h0.5c0.2,0,0.5,0.2,0.5,0.4c0,0,0,0,0,0c0,0.3,0.2,0.4,0.5,0.4c0.2,0,0.4-0.2,0.4-0.4
			c0-0.8-0.6-1.4-1.4-1.4c0,0,0,0,0,0H8.2V4.1c0-0.3-0.2-0.4-0.5-0.4c-0.2,0-0.4,0.2-0.4,0.4v0.5H6.8c-0.8,0-1.4,0.6-1.4,1.4
			c0,0,0,0,0,0v0.9c0,0.8,0.6,1.4,1.4,1.4c0,0,0,0,0,0h0.5v1.9H6.8c-0.2,0-0.5-0.2-0.5-0.4c0,0,0,0,0,0c0-0.3-0.2-0.4-0.5-0.4
			c-0.2,0-0.4,0.2-0.4,0.4c0,0.8,0.6,1.4,1.4,1.4c0,0,0,0,0,0h0.5v0.5c0,0.3,0.2,0.5,0.4,0.5c0.3,0,0.5-0.2,0.5-0.4c0,0,0,0,0,0V11
			h0.5c0.8,0,1.4-0.6,1.4-1.4c0,0,0,0,0,0v-1C10.1,7.9,9.5,7.3,8.7,7.3C8.7,7.3,8.7,7.3,8.7,7.3z M7.3,7.3H6.8
			c-0.2,0-0.5-0.2-0.5-0.4c0,0,0,0,0,0V5.9c0-0.2,0.2-0.5,0.4-0.5c0,0,0,0,0,0h0.5V7.3z M9.2,9.6c0,0.2-0.2,0.5-0.4,0.5c0,0,0,0,0,0
			H8.2V8.2h0.5c0.2,0,0.5,0.2,0.5,0.4c0,0,0,0,0,0V9.6z"/>
	</g>
</g>
</svg>
