<svg width="19" height="25" viewBox="0 0 19 25" fill="none" xmlns="http://www.w3.org/2000/svg">
<path d="M8.73064 15.7859C5.39923 15.356 2.96922 12.4359 3.16593 9.09926C3.36263 5.76259 6.11893 3.14523 9.47812 3.10568C12.8371 3.06613 15.655 5.61772 15.9312 8.94874C16.2072 12.28 13.8474 15.2563 10.5273 15.7647C10.2047 15.8136 9.87862 15.8382 9.55234 15.8382C9.27756 15.8384 9.00298 15.8208 8.73064 15.7859ZM14.4545 9.46971C14.4543 6.77608 12.2594 4.59252 9.55193 4.59272C6.84471 4.59293 4.64993 6.77669 4.65013 9.47052C4.65013 12.1644 6.84491 14.3479 9.55234 14.3479C12.26 14.3479 14.4547 12.1637 14.4545 9.46971Z" fill="white"/>
<path d="M9.55308 4.59167C12.2607 4.59167 14.4557 6.77543 14.4559 9.46947C14.4559 12.1635 12.2609 14.3475 9.55328 14.3475C6.84566 14.3475 4.65068 12.1633 4.65088 9.46927C4.65088 6.77564 6.84566 4.59188 9.55308 4.59167Z" fill="white"/>
<path d="M8.08252 21.9956H11.1795V24.5783H8.08252V21.9956Z" fill="white"/>
<path d="M11.1795 16.8134V21.9956H8.08252V16.8134H11.1795Z" fill="white"/>
<path d="M10.5296 15.7796V16.8126H8.73047V15.7852C9.00281 15.8201 9.27739 15.8377 9.55217 15.8375C9.87845 15.8375 10.2045 15.8129 10.5272 15.764L10.5296 15.7796Z" fill="white"/>
<path d="M11.7699 6.92128C11.7699 6.69308 11.5844 6.50806 11.3557 6.50806H7.79594C7.56721 6.50806 7.38176 6.69308 7.38176 6.92128C7.38176 7.14948 7.56721 7.33451 7.79594 7.33451H8.8148C9.28197 7.33451 9.68239 7.59277 9.84701 8.006H7.79594C7.56721 8.006 7.38176 8.19102 7.38176 8.41923C7.38176 8.64743 7.56721 8.83245 7.79594 8.83245H9.84823C9.79666 8.97793 9.71233 9.10968 9.6019 9.21763C9.39482 9.43009 9.11169 9.55176 8.8148 9.5556H7.79594C7.62707 9.55277 7.47398 9.65406 7.41068 9.81023C7.34759 9.9666 7.38743 10.1454 7.51119 10.2602L10.0573 12.6592C10.224 12.8158 10.4863 12.8081 10.6434 12.6419C10.8006 12.4756 10.7929 12.2139 10.6262 12.0571L8.83685 10.3701C9.74408 10.3548 10.5211 9.71762 10.7118 8.83245H11.3557C11.5844 8.83245 11.7699 8.64743 11.7699 8.41923C11.7699 8.19102 11.5844 8.006 11.3557 8.006H10.7114C10.657 7.76327 10.5524 7.53446 10.4042 7.33451H11.3557C11.5844 7.33451 11.7699 7.14948 11.7699 6.92128Z" fill="#1D390B"/>
<path d="M9.52775 4.17883C6.59877 4.17883 4.22432 6.54762 4.22412 9.46985C4.22412 12.3921 6.59857 14.7611 9.52755 14.7611C12.4565 14.7611 14.831 12.3921 14.8308 9.46965C14.8275 6.54903 12.4551 4.18226 9.52775 4.17883ZM9.52775 13.9346C7.05623 13.9348 5.05268 11.9361 5.05248 9.47026C5.05248 7.00442 7.05582 5.00549 9.52714 5.00528C11.9987 5.00528 14.0022 7.00402 14.0024 9.46965C13.9998 11.9343 11.9981 13.9318 9.52775 13.9346Z" fill="#1D390B"/>
<path d="M9.52498 2.68835C5.77695 2.68835 2.72339 5.73024 2.72339 9.46925C2.72076 12.7395 5.05921 15.545 8.28245 16.1388V16.4255H8.05837C7.953 16.4202 7.85027 16.4592 7.77483 16.5326C7.6996 16.6063 7.65835 16.7078 7.66118 16.8129V24.5778C7.65693 24.6866 7.69677 24.7925 7.7714 24.8718C7.84602 24.9511 7.94936 24.9973 8.05837 24.9999H11.1469C11.2559 24.9973 11.3593 24.9511 11.4339 24.8718C11.5085 24.7925 11.5483 24.6866 11.5441 24.5778V16.8129C11.5469 16.7078 11.5057 16.6063 11.4304 16.5326C11.355 16.4592 11.2523 16.4202 11.1469 16.4255H10.9228V16.1087C14.0714 15.4499 16.3258 12.679 16.3243 9.46925C16.3243 5.73024 13.273 2.68835 9.52498 2.68835ZM10.7157 24.1735H8.48953V22.4172H10.7157V24.1735ZM10.7157 21.5908H8.48953V17.2519H10.7157V21.5908ZM9.1108 16.4255V16.2386C9.26612 16.2465 9.38969 16.2509 9.52498 16.2509C9.71144 16.2509 9.88739 16.2427 10.0945 16.2273V16.4255H9.1108ZM14.0385 13.366C13.1126 14.4372 11.8357 15.1452 10.4352 15.3642C9.8795 15.4414 9.31668 15.4509 8.75871 15.3924H8.75831C5.79272 14.9792 3.5564 12.4657 3.5564 9.47772C3.5564 6.19431 6.234 3.51904 9.52518 3.51904C11.8608 3.51763 13.9823 4.87635 14.9536 6.99534C15.9249 9.11454 15.5674 11.6044 14.0387 13.366H14.0385Z" fill="#1D390B"/>
<path d="M9.1123 0.413225V1.49794C9.1123 1.72614 9.29775 1.91117 9.52648 1.91117C9.75521 1.91117 9.94066 1.72614 9.94066 1.49794V0.413225C9.94066 0.185023 9.75521 0 9.52648 0C9.29775 0 9.1123 0.185023 9.1123 0.413225Z" fill="#1D390B"/>
<path d="M18.5859 9.09094H17.4987C17.2699 9.09094 17.0845 9.27597 17.0845 9.50417C17.0845 9.73237 17.2699 9.91739 17.4987 9.91739H18.5859C18.8146 9.91739 19 9.73237 19 9.50417C19 9.27597 18.8146 9.09094 18.5859 9.09094Z" fill="#1D390B"/>
<path d="M1.5014 9.09095H0.414179C0.18545 9.09095 0 9.27598 0 9.50418C0 9.73238 0.18545 9.9174 0.414179 9.9174H1.5014C1.73013 9.9174 1.91558 9.73238 1.91558 9.50418C1.91558 9.27598 1.73013 9.09095 1.5014 9.09095Z" fill="#1D390B"/>
<path d="M15.6498 2.81129L14.8809 3.57822C14.7191 3.73964 14.7191 4.00133 14.8809 4.16275C15.0427 4.32416 15.305 4.32416 15.4667 4.16295L16.2354 3.39582C16.3972 3.2344 16.3972 2.97271 16.2354 2.81149C16.0739 2.65008 15.8116 2.65008 15.6498 2.81149V2.81129Z" fill="#1D390B"/>
<path d="M3.56807 14.8645L2.79917 15.6314C2.63758 15.7928 2.63758 16.0545 2.79917 16.2159C2.96096 16.3773 3.22326 16.3773 3.38505 16.2159L4.15374 15.4488C4.31553 15.2874 4.31553 15.0259 4.15374 14.8645C3.99216 14.7031 3.72986 14.7031 3.56807 14.8645Z" fill="#1D390B"/>
<path d="M15.4299 14.8645C15.2681 14.7031 15.0058 14.7031 14.8442 14.8645C14.6825 15.0259 14.6825 15.2874 14.8442 15.4488L15.6129 16.2159C15.7747 16.3773 16.037 16.3773 16.1988 16.2159C16.3606 16.0545 16.3606 15.793 16.1988 15.6314L15.4299 14.8645Z" fill="#1D390B"/>
<path d="M3.5314 4.16295C3.69319 4.32416 3.95549 4.32416 4.11727 4.16295C4.27886 4.00153 4.27886 3.73984 4.11727 3.57842L3.34837 2.81149C3.18659 2.65008 2.92429 2.65008 2.7627 2.81149C2.60091 2.97271 2.60091 3.2344 2.7627 3.39582L3.5314 4.16295Z" fill="#1D390B"/>
</svg>
