<?xml version="1.0" encoding="utf-8"?>
<!-- Generator: Adobe Illustrator 24.2.0, SVG Export Plug-In . SVG Version: 6.00 Build 0)  -->
<svg version="1.1" id="Layer_1" xmlns="http://www.w3.org/2000/svg" xmlns:xlink="http://www.w3.org/1999/xlink" x="0px" y="0px"
	 viewBox="0 0 25.6 27.3" enable-background="new 0 0 25.6 27.3" xml:space="preserve">
<g transform="translate(-13.629 1)">
	<path fill="none" stroke="#A5A5A5" stroke-width="2" d="M26.4,14.2c-7.6,0-11.8,3.6-11.8,10.1c0,0.5,0.4,0.9,0.9,0.9c0,0,0,0,0,0
		h21.7c0.5,0,0.9-0.4,0.9-0.9c0,0,0,0,0,0C38.2,17.8,34,14.2,26.4,14.2z"/>
	<path fill="none" stroke="#A5A5A5" stroke-width="2" d="M26.4,12.9c3.5-0.2,6.3-3.1,6.1-6.6c0.1-3.4-2.6-6.2-6-6.3s-6.2,2.6-6.3,6
		c0,0.1,0,0.2,0,0.3C20.2,9.8,22.9,12.7,26.4,12.9z"/>
</g>
</svg>
