<svg width="16" height="19" viewBox="0 0 16 19" fill="none" xmlns="http://www.w3.org/2000/svg">
<path d="M15.6831 0H0.316907C0.141848 0 0 0.124613 0 0.278319V13.4989C0 13.6526 0.141848 13.7772 0.316907 13.7772C0.491966 13.7772 0.633814 13.6526 0.633814 13.4989V0.556639H15.3662V2.30634C15.3662 2.46005 15.508 2.58466 15.6831 2.58466C15.8582 2.58466 16 2.46005 16 2.30634V0.278319C16 0.124613 15.8582 0 15.6831 0V0Z" fill="#1D390B"/>
<path d="M15.6831 3.32696C15.508 3.32696 15.3662 3.45157 15.3662 3.60528V18.4434H0.633814V14.7978C0.633814 14.6441 0.491966 14.5195 0.316907 14.5195C0.141848 14.5195 0 14.6441 0 14.7978V18.7217C0 18.8754 0.141848 19.0001 0.316907 19.0001H15.6831C15.8582 19.0001 16 18.8754 16 18.7217V3.60528C16 3.45157 15.8582 3.32696 15.6831 3.32696Z" fill="#1D390B"/>
<path d="M1.36572 5.78874C1.36572 6.97572 2.46526 7.94138 3.81681 7.94138C5.16835 7.94138 6.26789 6.97572 6.26789 5.78874C6.26789 4.60177 5.16835 3.63611 3.81681 3.63611C2.46526 3.63611 1.36572 4.60177 1.36572 5.78874ZM3.81681 7.38474C2.81475 7.38474 1.99954 6.66879 1.99954 5.78874C1.99954 5.00366 2.64848 4.34965 3.4999 4.21754V5.78874C3.4999 5.94245 3.64175 6.06706 3.81681 6.06706H5.60585C5.45539 6.81482 4.71074 7.38474 3.81681 7.38474ZM5.60585 5.51042H4.13371V4.21754C4.88212 4.33369 5.4736 4.85314 5.60585 5.51042Z" fill="#1D390B"/>
<path d="M1.8528 16.0442C1.67774 16.0442 1.53589 16.1688 1.53589 16.3225V17.5221C1.53589 17.6758 1.67774 17.8004 1.8528 17.8004H3.90162C4.07668 17.8004 4.21852 17.6758 4.21852 17.5221V16.3225C4.21852 16.1688 4.07668 16.0442 3.90162 16.0442H1.8528ZM3.58471 17.2437H2.1697V16.6008H3.58471V17.2437Z" fill="#1D390B"/>
<path d="M5.26783 17.8003H7.31662C7.49168 17.8003 7.63352 17.6757 7.63352 17.522V14.5231C7.63352 14.3694 7.49168 14.2448 7.31662 14.2448H5.26783C5.09278 14.2448 4.95093 14.3694 4.95093 14.5231V17.522C4.95093 17.6757 5.09278 17.8003 5.26783 17.8003ZM5.58474 14.8014H6.99971V17.2437H5.58474V14.8014Z" fill="#1D390B"/>
<path d="M8.68263 11.9957C8.50757 11.9957 8.36572 12.1203 8.36572 12.274V17.5221C8.36572 17.6759 8.50757 17.8005 8.68263 17.8005H10.7314C10.9065 17.8005 11.0483 17.6759 11.0483 17.5221V12.274C11.0483 12.1203 10.9065 11.9957 10.7314 11.9957H8.68263ZM10.4145 17.2438H8.99954V12.5524H10.4145V17.2438Z" fill="#1D390B"/>
<path d="M14.1457 12.0343C14.3207 12.0343 14.4626 11.9097 14.4626 11.756V10.7744C14.4626 10.6207 14.3207 10.4961 14.1457 10.4961H12.0972C11.9221 10.4961 11.7803 10.6207 11.7803 10.7744V17.5216C11.7803 17.6753 11.9221 17.7999 12.0972 17.7999H14.1456C14.3207 17.7999 14.4625 17.6753 14.4625 17.5216V13.0548C14.4625 12.9011 14.3207 12.7765 14.1456 12.7765C13.9706 12.7765 13.8287 12.9011 13.8287 13.0548V17.2433H12.4141V11.0527H13.8287V11.756C13.8288 11.9097 13.9706 12.0343 14.1457 12.0343Z" fill="#1D390B"/>
<path d="M11.4151 1.19958H4.58571C4.41065 1.19958 4.2688 1.3242 4.2688 1.4779V2.67746C4.2688 2.83117 4.41065 2.95578 4.58571 2.95578H11.4151C11.5902 2.95578 11.732 2.83117 11.732 2.67746V1.4779C11.732 1.3242 11.5901 1.19958 11.4151 1.19958ZM11.0982 2.39914H4.90261V1.75622H11.0982V2.39914H11.0982Z" fill="#1D390B"/>
<path d="M14.3179 3.63611H8.00074C7.82569 3.63611 7.68384 3.76072 7.68384 3.91443C7.68384 4.06813 7.82569 4.19275 8.00074 4.19275H14.3179C14.493 4.19275 14.6348 4.06813 14.6348 3.91443C14.6348 3.76072 14.4929 3.63611 14.3179 3.63611Z" fill="#1D390B"/>
<path d="M14.3179 4.88574H8.00074C7.82569 4.88574 7.68384 5.01036 7.68384 5.16406C7.68384 5.31777 7.82569 5.44238 8.00074 5.44238H14.3179C14.493 5.44238 14.6348 5.31777 14.6348 5.16406C14.6348 5.01036 14.4929 4.88574 14.3179 4.88574Z" fill="#1D390B"/>
<path d="M14.6348 6.4137C14.6348 6.25999 14.493 6.13538 14.3179 6.13538H8.00074C7.82569 6.13538 7.68384 6.25999 7.68384 6.4137C7.68384 6.5674 7.82569 6.69201 8.00074 6.69201H14.3179C14.4929 6.69201 14.6348 6.5674 14.6348 6.4137Z" fill="#1D390B"/>
<path d="M12.0738 7.66333C12.0738 7.50962 11.932 7.38501 11.7569 7.38501H8.00074C7.82569 7.38501 7.68384 7.50962 7.68384 7.66333C7.68384 7.81704 7.82569 7.94165 8.00074 7.94165H11.7569C11.932 7.94165 12.0738 7.81704 12.0738 7.66333Z" fill="#1D390B"/>
<path d="M7.99962 9.22168H2.23732C2.06226 9.22168 1.92041 9.34629 1.92041 9.5C1.92041 9.65371 2.06226 9.77832 2.23732 9.77832H7.99962C8.17468 9.77832 8.31652 9.65371 8.31652 9.5C8.31652 9.34629 8.17468 9.22168 7.99962 9.22168Z" fill="#1D390B"/>
<path d="M8.31652 10.7495C8.31652 10.5958 8.17468 10.4712 7.99962 10.4712H2.23732C2.06226 10.4712 1.92041 10.5958 1.92041 10.7495C1.92041 10.9032 2.06226 11.0278 2.23732 11.0278H7.99962C8.17468 11.0278 8.31652 10.9032 8.31652 10.7495Z" fill="#1D390B"/>
<path d="M5.75554 11.999C5.75554 11.8453 5.61369 11.7207 5.43863 11.7207H2.23732C2.06226 11.7207 1.92041 11.8453 1.92041 11.999C1.92041 12.1527 2.06226 12.2773 2.23732 12.2773H5.43863C5.61365 12.2773 5.75554 12.1527 5.75554 11.999Z" fill="#1D390B"/>
</svg>
