<svg width="25" height="25" viewBox="0 0 25 25" fill="none" xmlns="http://www.w3.org/2000/svg">
<path d="M21.0937 13.0938V12.5V11.8984L22.5937 10.5859C22.8703 10.3422 23.0517 10.0086 23.106 9.64408C23.1604 9.27952 23.0841 8.9075 22.8906 8.59376L21.0469 5.46876C20.9099 5.23147 20.7129 5.03437 20.4757 4.89725C20.2384 4.76012 19.9693 4.68779 19.6953 4.68751C19.5255 4.68621 19.3566 4.7126 19.1953 4.76564L17.2969 5.40626C16.9691 5.18846 16.6272 4.99271 16.2734 4.82033L15.875 2.85158C15.8036 2.49189 15.6079 2.16879 15.3222 1.93884C15.0366 1.70889 14.6791 1.58674 14.3125 1.59376H10.6562C10.2896 1.58674 9.93217 1.70889 9.64652 1.93884C9.36086 2.16879 9.16519 2.49189 9.09375 2.85158L8.69531 4.82033C8.33901 4.99267 7.99451 5.18841 7.66406 5.40626L5.80469 4.73439C5.64164 4.69191 5.47279 4.67608 5.30469 4.68751C5.03068 4.68779 4.76157 4.76012 4.52434 4.89725C4.28712 5.03437 4.09013 5.23147 3.95312 5.46876L2.10937 8.59376C1.92702 8.90703 1.85926 9.27396 1.91769 9.6317C1.97613 9.98944 2.15713 10.3157 2.42969 10.5547L3.90625 11.9063V13.1016L2.42969 14.4141C2.14943 14.6547 1.96348 14.9868 1.90484 15.3515C1.8462 15.7162 1.91867 16.0899 2.10937 16.4063L3.95312 19.5313C4.09013 19.7686 4.28712 19.9657 4.52434 20.1028C4.76157 20.2399 5.03068 20.3122 5.30469 20.3125C5.47449 20.3138 5.64337 20.2874 5.80469 20.2344L7.70312 19.5938C8.03089 19.8116 8.37279 20.0073 8.72656 20.1797L9.125 22.1485C9.19644 22.5081 9.39211 22.8312 9.67777 23.0612C9.96342 23.2911 10.3209 23.4133 10.6875 23.4063H14.375C14.7416 23.4133 15.0991 23.2911 15.3847 23.0612C15.6704 22.8312 15.8661 22.5081 15.9375 22.1485L16.3359 20.1797C16.6922 20.0074 17.0367 19.8116 17.3672 19.5938L19.2578 20.2344C19.4191 20.2874 19.588 20.3138 19.7578 20.3125C20.0318 20.3122 20.3009 20.2399 20.5382 20.1028C20.7754 19.9657 20.9724 19.7686 21.1094 19.5313L22.8906 16.4063C23.073 16.093 23.1407 15.7261 23.0823 15.3683C23.0239 15.0106 22.8429 14.6843 22.5703 14.4453L21.0937 13.0938ZM19.6953 18.75L17.0156 17.8438C16.3883 18.3751 15.6714 18.7904 14.8984 19.0703L14.3438 21.875H10.6562L10.1016 19.1016C9.3347 18.8137 8.62165 18.3991 7.99219 17.875L5.30469 18.75L3.46094 15.625L5.58594 13.75C5.44148 12.9413 5.44148 12.1134 5.58594 11.3047L3.46094 9.37501L5.30469 6.25001L7.98437 7.15626C8.61167 6.62493 9.3286 6.20959 10.1016 5.9297L10.6562 3.12501H14.3438L14.8984 5.89845C15.6653 6.18628 16.3783 6.6009 17.0078 7.12501L19.6953 6.25001L21.5391 9.37501L19.4141 11.25C19.5585 12.0587 19.5585 12.8866 19.4141 13.6953L21.5391 15.625L19.6953 18.75Z" fill="black"/>
<path d="M12.5 17.1875C11.5729 17.1875 10.6666 16.9126 9.89577 16.3975C9.12491 15.8824 8.5241 15.1504 8.16932 14.2938C7.81453 13.4373 7.7217 12.4948 7.90257 11.5855C8.08344 10.6762 8.52988 9.841 9.18544 9.18544C9.841 8.52988 10.6762 8.08344 11.5855 7.90257C12.4948 7.7217 13.4373 7.81453 14.2938 8.16932C15.1504 8.5241 15.8824 9.12491 16.3975 9.89577C16.9126 10.6666 17.1875 11.5729 17.1875 12.5C17.1938 13.1173 17.0768 13.7297 16.8435 14.3012C16.6101 14.8728 16.2651 15.392 15.8285 15.8285C15.392 16.2651 14.8728 16.6101 14.3012 16.8435C13.7297 17.0768 13.1173 17.1938 12.5 17.1875ZM12.5 9.375C12.087 9.36538 11.6763 9.43964 11.2928 9.59328C10.9093 9.74692 10.561 9.97675 10.2689 10.2689C9.97675 10.561 9.74692 10.9093 9.59328 11.2928C9.43964 11.6763 9.36538 12.087 9.375 12.5C9.36538 12.913 9.43964 13.3237 9.59328 13.7072C9.74692 14.0907 9.97675 14.439 10.2689 14.7311C10.561 15.0233 10.9093 15.2531 11.2928 15.4067C11.6763 15.5604 12.087 15.6346 12.5 15.625C12.913 15.6346 13.3237 15.5604 13.7072 15.4067C14.0907 15.2531 14.439 15.0233 14.7311 14.7311C15.0233 14.439 15.2531 14.0907 15.4067 13.7072C15.5604 13.3237 15.6346 12.913 15.625 12.5C15.6346 12.087 15.5604 11.6763 15.4067 11.2928C15.2531 10.9093 15.0233 10.561 14.7311 10.2689C14.439 9.97675 14.0907 9.74692 13.7072 9.59328C13.3237 9.43964 12.913 9.36538 12.5 9.375Z" fill="black"/>
</svg>
