<svg xmlns="http://www.w3.org/2000/svg" width="20.237" height="20.237" viewBox="0 0 20.237 20.237"><defs><style>.a{fill:none;stroke:#515151;stroke-linecap:round;stroke-linejoin:round;stroke-width:1.5px;}</style></defs><g transform="translate(0.75 0.75)"><circle class="a" cx="2.5" cy="2.5" r="2.5" transform="translate(7.198 6.82)"/><path class="a" d="M16.671,12.924a1.405,1.405,0,0,0,.281,1.55l.051.051a1.7,1.7,0,1,1-2.41,2.41l-.051-.051a1.417,1.417,0,0,0-2.4,1v.145a1.7,1.7,0,0,1-3.407,0v-.077a1.405,1.405,0,0,0-.92-1.286,1.405,1.405,0,0,0-1.55.281L6.212,17a1.7,1.7,0,1,1-2.41-2.41l.051-.051a1.417,1.417,0,0,0-1-2.4H2.7a1.7,1.7,0,1,1,0-3.407H2.78a1.405,1.405,0,0,0,1.286-.92,1.405,1.405,0,0,0-.281-1.55l-.051-.051A1.7,1.7,0,1,1,6.144,3.8l.051.051a1.405,1.405,0,0,0,1.55.281h.068a1.405,1.405,0,0,0,.852-1.286V2.7a1.7,1.7,0,0,1,3.407,0V2.78a1.417,1.417,0,0,0,2.4,1l.051-.051a1.7,1.7,0,1,1,2.41,2.41l-.051.051a1.405,1.405,0,0,0-.281,1.55v.068a1.405,1.405,0,0,0,1.286.852h.145a1.7,1.7,0,0,1,0,3.407h-.077A1.405,1.405,0,0,0,16.671,12.924Z" transform="translate(-1 -1)"/></g></svg>