<svg width="30" height="30" viewBox="0 0 30 30" fill="none" xmlns="http://www.w3.org/2000/svg">
<path d="M20 22.5C20.663 22.5 21.2989 22.7634 21.7678 23.2322C22.2366 23.7011 22.5 24.337 22.5 25C22.5 25.663 22.2366 26.2989 21.7678 26.7678C21.2989 27.2366 20.663 27.5 20 27.5C19.337 27.5 18.7011 27.2366 18.2322 26.7678C17.7634 26.2989 17.5 25.663 17.5 25C17.5 24.337 17.7634 23.7011 18.2322 23.2322C18.7011 22.7634 19.337 22.5 20 22.5ZM20 23.75C19.6685 23.75 19.3505 23.8817 19.1161 24.1161C18.8817 24.3505 18.75 24.6685 18.75 25C18.75 25.3315 18.8817 25.6495 19.1161 25.8839C19.3505 26.1183 19.6685 26.25 20 26.25C20.3315 26.25 20.6495 26.1183 20.8839 25.8839C21.1183 25.6495 21.25 25.3315 21.25 25C21.25 24.6685 21.1183 24.3505 20.8839 24.1161C20.6495 23.8817 20.3315 23.75 20 23.75ZM8.75 22.5C9.41304 22.5 10.0489 22.7634 10.5178 23.2322C10.9866 23.7011 11.25 24.337 11.25 25C11.25 25.663 10.9866 26.2989 10.5178 26.7678C10.0489 27.2366 9.41304 27.5 8.75 27.5C8.08696 27.5 7.45107 27.2366 6.98223 26.7678C6.51339 26.2989 6.25 25.663 6.25 25C6.25 24.337 6.51339 23.7011 6.98223 23.2322C7.45107 22.7634 8.08696 22.5 8.75 22.5ZM8.75 23.75C8.41848 23.75 8.10054 23.8817 7.86612 24.1161C7.6317 24.3505 7.5 24.6685 7.5 25C7.5 25.3315 7.6317 25.6495 7.86612 25.8839C8.10054 26.1183 8.41848 26.25 8.75 26.25C9.08152 26.25 9.39946 26.1183 9.63388 25.8839C9.8683 25.6495 10 25.3315 10 25C10 24.6685 9.8683 24.3505 9.63388 24.1161C9.39946 23.8817 9.08152 23.75 8.75 23.75ZM22.5 7.5H5.34125L8.525 15H18.75C18.9444 15.0003 19.1361 14.955 19.3098 14.8677C19.4835 14.7804 19.6342 14.6536 19.75 14.4975L23.5 9.4975H23.5013C23.6399 9.3117 23.7241 9.091 23.7445 8.86008C23.7649 8.62916 23.7207 8.39711 23.6169 8.18986C23.513 7.98262 23.3535 7.80835 23.1563 7.68652C22.959 7.56469 22.7318 7.50011 22.5 7.5ZM18.75 16.25H8.5825L7.625 18.2L7.5 18.75C7.5 19.0815 7.6317 19.3995 7.86612 19.6339C8.10054 19.8683 8.41848 20 8.75 20H22.5V21.25H8.75C8.31471 21.2502 7.8869 21.1368 7.50892 20.9209C7.13093 20.705 6.81586 20.3942 6.59488 20.0191C6.3739 19.6441 6.25468 19.2179 6.249 18.7826C6.24332 18.3474 6.35138 17.9182 6.5625 17.5375L7.4625 15.695L2.9225 5H1.25V3.75H3.75L4.81125 6.25H22.5C22.9723 6.25004 23.435 6.3839 23.8344 6.63607C24.2338 6.88823 24.5536 7.24839 24.7567 7.67482C24.9599 8.10125 25.0381 8.5765 24.9822 9.04553C24.9264 9.51456 24.7388 9.95818 24.4412 10.325L20.7987 15.1825C20.5685 15.5123 20.2619 15.7815 19.9052 15.9674C19.5485 16.1532 19.1522 16.2502 18.75 16.25Z" fill="black"/>
</svg>
