<svg width="20" height="12" viewBox="0 0 20 12" fill="none" xmlns="http://www.w3.org/2000/svg">
<path d="M2 0H18C19.105 0 20 0.767077 20 1.71415V10.2858C20 11.2329 19.105 12 18 12H2C0.895 12 0 11.2329 0 10.2858V1.71415C0 0.767077 0.895 0 2 0ZM11 2.76923C10.7348 2.76923 10.4804 2.86648 10.2929 3.03959C10.1054 3.2127 10 3.44749 10 3.69231C10 3.93712 10.1054 4.17191 10.2929 4.34502C10.4804 4.51813 10.7348 4.61538 11 4.61538H17C17.2652 4.61538 17.5196 4.51813 17.7071 4.34502C17.8946 4.17191 18 3.93712 18 3.69231C18 3.44749 17.8946 3.2127 17.7071 3.03959C17.5196 2.86648 17.2652 2.76923 17 2.76923H11ZM11 5.53846C10.7348 5.53846 10.4804 5.63571 10.2929 5.80882C10.1054 5.98194 10 6.21672 10 6.46154C10 6.70635 10.1054 6.94114 10.2929 7.11425C10.4804 7.28736 10.7348 7.38462 11 7.38462H17C17.2652 7.38462 17.5196 7.28736 17.7071 7.11425C17.8946 6.94114 18 6.70635 18 6.46154C18 6.21672 17.8946 5.98194 17.7071 5.80882C17.5196 5.63571 17.2652 5.53846 17 5.53846H11ZM3 2.76923C2.73478 2.76923 2.48043 2.86648 2.29289 3.03959C2.10536 3.2127 2 3.44749 2 3.69231V6.46154C2 6.70635 2.10536 6.94114 2.29289 7.11425C2.48043 7.28736 2.73478 7.38462 3 7.38462H6C6.26522 7.38462 6.51957 7.28736 6.70711 7.11425C6.89464 6.94114 7 6.70635 7 6.46154V3.69231C7 3.44749 6.89464 3.2127 6.70711 3.03959C6.51957 2.86648 6.26522 2.76923 6 2.76923H3Z" fill="black"/>
</svg>
