<svg width="45" height="43" viewBox="0 0 45 43" fill="none" xmlns="http://www.w3.org/2000/svg">
<path d="M15.1777 8.56309C16.1545 6.90538 17.6736 5.61457 19.4922 4.897C21.3107 4.17943 23.3236 4.07653 25.2092 4.60474C27.0949 5.13295 28.7443 6.26179 29.8938 7.8108C31.0434 9.35981 31.6267 11.2396 31.5506 13.1496C31.4744 15.0596 30.7432 16.8896 29.4738 18.3471C28.2044 19.8046 26.4701 20.8054 24.5481 21.1896C22.6261 21.5737 20.6275 21.3191 18.8715 20.4663C17.1156 19.6135 15.7038 18.2118 14.8619 16.4852C14.2994 16.8861 13.6202 17.1017 12.9233 17.1005H11.8268V17.6454C11.8268 18.0513 11.9847 18.4209 12.2435 18.7008C12.4646 18.4572 12.7566 18.2851 13.0807 18.2073C13.4047 18.1295 13.7454 18.1497 14.0574 18.2653C14.3694 18.3808 14.6378 18.5862 14.827 18.8541C15.0161 19.1219 15.1171 19.4396 15.1163 19.7648C15.1161 19.9881 15.0681 20.2089 14.9752 20.413C14.8823 20.6171 14.7466 20.8001 14.5769 20.9502C14.4072 21.1003 14.2071 21.2141 13.9896 21.2844C13.772 21.3548 13.5418 21.38 13.3136 21.3586C12.326 21.3248 11.3903 20.9188 10.7038 20.2261C10.0174 19.5334 9.63375 18.6082 9.63379 17.6454V9.6292C9.63379 9.34589 9.74931 9.07417 9.95495 8.87384C10.1606 8.6735 10.4395 8.56095 10.7303 8.56095H15.1163L15.1777 8.56309ZM11.8268 14.964H12.9233C13.2141 14.964 13.493 14.8515 13.6986 14.6512C13.9043 14.4508 14.0198 14.1791 14.0198 13.8958V13.1053C14.0134 12.9145 14.0134 12.7235 14.0198 12.5327V10.6975H11.8268V14.964Z" fill="#415833"/>
<path d="M7.43642 27.7745C7.43642 25.3966 9.4167 23.5015 11.8422 23.5015H33.7524C34.9157 23.5015 36.0313 23.9517 36.8538 24.753C37.6763 25.5544 38.1384 26.6412 38.1384 27.7745C38.1384 31.3873 36.3117 34.1114 33.4564 35.8868C30.6449 37.6323 26.8554 38.457 22.7874 38.457C18.7194 38.457 14.9299 37.6323 12.1185 35.8868C9.26319 34.1135 7.43642 31.3852 7.43642 27.7745Z" fill="#415833"/>
</svg>
