<?xml version="1.0" encoding="iso-8859-1"?>
<!-- Generator: Adobe Illustrator 24.0.1, SVG Export Plug-In . SVG Version: 6.00 Build 0)  -->
<svg version="1.1" id="Layer_1" xmlns="http://www.w3.org/2000/svg" xmlns:xlink="http://www.w3.org/1999/xlink" x="0px" y="0px"
	 viewBox="0 0 72.901 86.733" enable-background="new 0 0 72.901 86.733" xml:space="preserve">
<g transform="translate(-49.022 69.47) rotate(-45)">
	<path fill="#FFFFFF" d="M55.016,50.393c-5.459-5.459-5.459-14.309,0-19.767s14.309-5.459,19.767,0l-1.98,1.98
		c-4.366-4.368-11.446-4.369-15.814-0.003s-4.369,11.446-0.003,15.814c0.001,0.001,0.002,0.002,0.003,0.003L55.016,50.393z"/>
	<path fill="#14FF92" d="M131.164,41.262L116.566,55.86c-2.304,2.304-6.04,2.304-8.344,0l0,0l-6.256-6.256l-17.724,1.044
		l9.385-9.385l-8.344-8.344c-2.304-2.299-2.308-6.031-0.008-8.335c0.003-0.003,0.006-0.006,0.008-0.008L99.88,9.978
		c2.304-2.304,6.04-2.304,8.344,0l22.941,22.941c0.15,0.149,0.291,0.306,0.422,0.472C133.476,35.737,133.294,39.131,131.164,41.262z
		"/>
	<g transform="translate(105.094 15.192) rotate(45)">
		<path fill="#33C481" d="M0,11.798h5.9v7.374H0V11.798z"/>
		<path fill="#33C481" d="M11.798,5.899h5.9v13.273h-5.9V5.899z"/>
		<path fill="#33C481" d="M23.596,0h5.9v19.171h-5.9V0z"/>
	</g>
	<path fill="#21A366" d="M92.581,27.705l20.855,20.855l-2.085,2.085L90.496,29.79L92.581,27.705z"/>
	<g transform="translate(61.439 7.889) rotate(45)">
		<g transform="translate(0)">
			
				<linearGradient id="SVGID_1_" gradientUnits="userSpaceOnUse" x1="-256.1587" y1="425.3235" x2="-255.2959" y2="424.4608" gradientTransform="matrix(55.1786 0 0 -55.1786 14140.5908 23474.875)">
				<stop  offset="0" style="stop-color:#14FF92"/>
				<stop  offset="1" style="stop-color:#21A366"/>
			</linearGradient>
			<path fill="url(#SVGID_1_)" d="M36.933,34.649c7.554-8.816,6.532-22.086-2.284-29.64S12.563-1.523,5.009,7.293
				s-6.532,22.086,2.284,29.64c7.871,6.745,19.485,6.745,27.356,0l2.713-0.217L36.933,34.649z M53.708,46.857L43.47,36.619
				c-0.631-0.631-1.653-0.631-2.284,0c0,0,0,0,0,0l-1.142,1.141l-1.821,0.032l-0.463,2.252l-1.142,1.142
				c-0.631,0.631-0.631,1.653,0,2.284c0,0,0,0,0,0l10.239,10.239c1.892,1.892,4.96,1.892,6.852,0S55.601,48.749,53.708,46.857
				L53.708,46.857z"/>
		</g>
	</g>
</g>
</svg>
