<?xml version="1.0" encoding="utf-8"?>
<!-- Generator: Adobe Illustrator 24.2.0, SVG Export Plug-In . SVG Version: 6.00 Build 0)  -->
<svg version="1.1" id="Layer_1" xmlns="http://www.w3.org/2000/svg" xmlns:xlink="http://www.w3.org/1999/xlink" x="0px" y="0px"
	 viewBox="0 0 27.7 22.4" enable-background="new 0 0 27.7 22.4" xml:space="preserve">
<g transform="translate(-3 -7)">
	<path fill="#33C481" d="M29.4,26.1h-9.2V11.6h7c0.6,0,1.1,0.4,1.3,0.9l2.3,7v5.3C30.7,25.5,30.1,26.1,29.4,26.1
		C29.4,26.1,29.4,26.1,29.4,26.1"/>
	<path fill="#21A366" d="M20.1,26.1H4.3c-0.7,0-1.3-0.6-1.3-1.3l0,0V8.3C3,7.6,3.6,7,4.3,7h14.5c0.7,0,1.3,0.6,1.3,1.3v0L20.1,26.1z
		"/>
	<path fill="#586169" d="M28.7,26.1c0,1.8-1.5,3.3-3.3,3.3s-3.3-1.5-3.3-3.3c0-1.8,1.5-3.3,3.3-3.3C27.2,22.8,28.7,24.3,28.7,26.1"
		/>
	<path fill="#586169" d="M12.9,26.1c0,1.8-1.5,3.3-3.3,3.3s-3.3-1.5-3.3-3.3s1.5-3.3,3.3-3.3c0,0,0,0,0,0
		C11.4,22.8,12.9,24.3,12.9,26.1"/>
	<path fill="#999999" d="M26.7,26.1c0,0.7-0.6,1.3-1.3,1.3c-0.7,0-1.3-0.6-1.3-1.3c0-0.7,0.6-1.3,1.3-1.3
		C26.1,24.8,26.7,25.4,26.7,26.1L26.7,26.1"/>
	<path fill="#999999" d="M10.9,26.1c0,0.7-0.6,1.3-1.3,1.3c-0.7,0-1.3-0.6-1.3-1.3c0-0.7,0.6-1.3,1.3-1.3S10.9,25.4,10.9,26.1
		L10.9,26.1"/>
	<path fill="#21A366" d="M28,18.9h-4.6c-0.4,0-0.7-0.3-0.7-0.7l0,0v-4.6c0-0.4,0.3-0.7,0.7-0.7l0,0h3.3c0.3,0,0.5,0.2,0.6,0.5
		l1.3,3.9c0,0.1,0,0.1,0,0.2v0.7C28.7,18.6,28.4,18.9,28,18.9C28,18.9,28,18.9,28,18.9z"/>
</g>
</svg>
