<?xml version="1.0" encoding="utf-8"?>
<!-- Generator: Adobe Illustrator 24.2.0, SVG Export Plug-In . SVG Version: 6.00 Build 0)  -->
<svg version="1.1" id="Layer_1" xmlns="http://www.w3.org/2000/svg" xmlns:xlink="http://www.w3.org/1999/xlink" x="0px" y="0px"
	 viewBox="0 0 75.8 75.8" enable-background="new 0 0 75.8 75.8" xml:space="preserve">
<g transform="translate(-30 -30)">
	
		<linearGradient id="SVGID_1_" gradientUnits="userSpaceOnUse" x1="-208.1611" y1="458.9594" x2="-208.0231" y2="458.1794" gradientTransform="matrix(12.638 0 0 -12.638 2665.1013 5825.5874)">
		<stop  offset="0" style="stop-color:#22CC7D"/>
		<stop  offset="1" style="stop-color:#33C481"/>
	</linearGradient>
	<path fill="url(#SVGID_1_)" d="M32.1,30h8.4c1.2,0,2.1,0.9,2.1,2.1v8.4c0,1.2-0.9,2.1-2.1,2.1h-8.4c-1.2,0-2.1-0.9-2.1-2.1v-8.4
		C30,30.9,30.9,30,32.1,30z"/>
	
		<linearGradient id="SVGID_2_" gradientUnits="userSpaceOnUse" x1="-208.242" y1="459.4171" x2="-208.104" y2="458.6371" gradientTransform="matrix(12.638 0 0 -12.638 2665.1013 5846.6606)">
		<stop  offset="0" style="stop-color:#22CC7D"/>
		<stop  offset="1" style="stop-color:#33C481"/>
	</linearGradient>
	<path fill="url(#SVGID_2_)" d="M32.1,51.1h8.4c1.2,0,2.1,0.9,2.1,2.1l0,0v8.4c0,1.2-0.9,2.1-2.1,2.1l0,0h-8.4
		c-1.2,0-2.1-0.9-2.1-2.1v0v-8.4C30,52,30.9,51.1,32.1,51.1L32.1,51.1z"/>
	
		<linearGradient id="SVGID_3_" gradientUnits="userSpaceOnUse" x1="-208.3228" y1="459.8757" x2="-208.1848" y2="459.0947" gradientTransform="matrix(12.638 0 0 -12.638 2665.1013 5867.7246)">
		<stop  offset="0" style="stop-color:#22CC7D"/>
		<stop  offset="1" style="stop-color:#33C481"/>
	</linearGradient>
	<path fill="url(#SVGID_3_)" d="M32.1,72.1h8.4c1.2,0,2.1,0.9,2.1,2.1l0,0v8.4c0,1.2-0.9,2.1-2.1,2.1l0,0h-8.4
		c-1.2,0-2.1-0.9-2.1-2.1l0,0v-8.4C30,73.1,30.9,72.1,32.1,72.1L32.1,72.1z"/>
	
		<linearGradient id="SVGID_4_" gradientUnits="userSpaceOnUse" x1="-208.4036" y1="460.3334" x2="-208.2657" y2="459.5524" gradientTransform="matrix(12.638 0 0 -12.638 2665.1013 5888.7886)">
		<stop  offset="0" style="stop-color:#22CC7D"/>
		<stop  offset="1" style="stop-color:#33C481"/>
	</linearGradient>
	<path fill="url(#SVGID_4_)" d="M32.1,93.2h8.4c1.2,0,2.1,0.9,2.1,2.1l0,0v8.4c0,1.2-0.9,2.1-2.1,2.1l0,0h-8.4
		c-1.2,0-2.1-0.9-2.1-2.1l0,0v-8.4C30,94.1,30.9,93.2,32.1,93.2L32.1,93.2z"/>
	
		<linearGradient id="SVGID_5_" gradientUnits="userSpaceOnUse" x1="-223.7708" y1="444.6339" x2="-223.7708" y2="443.9178" gradientTransform="matrix(54.766 0 0 -8.425 12333.4795 3789.0676)">
		<stop  offset="0" style="stop-color:#16F38F"/>
		<stop  offset="1" style="stop-color:#09CC74"/>
	</linearGradient>
	<path fill="url(#SVGID_5_)" d="M53.2,53.2h50.6c1.2,0,2.1,0.9,2.1,2.1c0,0,0,0,0,0v4.2c0,1.2-0.9,2.1-2.1,2.1l0,0H53.2
		c-1.2,0-2.1-0.9-2.1-2.1c0,0,0,0,0,0v-4.2C51.1,54.1,52,53.2,53.2,53.2C53.2,53.2,53.2,53.2,53.2,53.2z"/>
	
		<linearGradient id="SVGID_6_" gradientUnits="userSpaceOnUse" x1="-223.7708" y1="445.3428" x2="-223.7708" y2="444.6259" gradientTransform="matrix(54.766 0 0 -8.425 12333.4795 3810.1318)">
		<stop  offset="0" style="stop-color:#16F38F"/>
		<stop  offset="1" style="stop-color:#09CC74"/>
	</linearGradient>
	<path fill="url(#SVGID_6_)" d="M53.2,74.2h50.6c1.2,0,2.1,0.9,2.1,2.1l0,0v4.2c0,1.2-0.9,2.1-2.1,2.1l0,0H53.2
		c-1.2,0-2.1-0.9-2.1-2.1l0,0v-4.2C51.1,75.2,52,74.2,53.2,74.2C53.2,74.2,53.2,74.2,53.2,74.2z"/>
	
		<linearGradient id="SVGID_7_" gradientUnits="userSpaceOnUse" x1="-223.7708" y1="446.0508" x2="-223.7708" y2="445.3338" gradientTransform="matrix(54.766 0 0 -8.425 12333.4795 3831.1958)">
		<stop  offset="0" style="stop-color:#16F38F"/>
		<stop  offset="1" style="stop-color:#09CC74"/>
	</linearGradient>
	<path fill="url(#SVGID_7_)" d="M53.2,95.3h50.6c1.2,0,2.1,0.9,2.1,2.1l0,0v4.2c0,1.2-0.9,2.1-2.1,2.1l0,0H53.2
		c-1.2,0-2.1-0.9-2.1-2.1l0,0v-4.2C51.1,96.2,52,95.3,53.2,95.3C53.2,95.3,53.2,95.3,53.2,95.3z"/>
	
		<linearGradient id="SVGID_8_" gradientUnits="userSpaceOnUse" x1="-223.7708" y1="443.9258" x2="-223.7708" y2="443.2088" gradientTransform="matrix(54.766 0 0 -8.425 12333.4795 3768.002)">
		<stop  offset="0" style="stop-color:#16F38F"/>
		<stop  offset="1" style="stop-color:#09CC74"/>
	</linearGradient>
	<path fill="url(#SVGID_8_)" d="M53.2,32.1h50.6c1.2,0,2.1,0.9,2.1,2.1l0,0v4.2c0,1.2-0.9,2.1-2.1,2.1l0,0H53.2
		c-1.2,0-2.1-0.9-2.1-2.1l0,0v-4.2C51.1,33,52,32.1,53.2,32.1L53.2,32.1z"/>
</g>
</svg>
